<?xml version="1.0" standalone="no"?><!DOCTYPE svg PUBLIC "-//W3C//DTD SVG 1.1//EN" "http://www.w3.org/Graphics/SVG/1.1/DTD/svg11.dtd"><svg height="1024" legacy-metrics="false" node-id="1" sillyvg="true" template-height="1024" template-width="1024" version="1.1" viewBox="0 0 1024 1024" width="1024" xmlns="http://www.w3.org/2000/svg" xmlns:xlink="http://www.w3.org/1999/xlink"><defs node-id="62"><linearGradient gradientUnits="objectBoundingBox" id="linearGradient-1" node-id="5" x1="0.5" x2="0.5" y1="1" y2="0"><stop offset="0" stop-color="#e3e6ed"></stop><stop offset="1" stop-color="#dde0e4"></stop></linearGradient><linearGradient gradientUnits="objectBoundingBox" id="linearGradient-2" node-id="8" x1="0.004479895" x2="1" y1="0.5" y2="0.5"><stop offset="0" stop-color="#aeafb0"></stop><stop offset="0.50407016" stop-color="#c6c9ce"></stop><stop offset="1" stop-color="#adadb1"></stop></linearGradient><linearGradient gradientUnits="objectBoundingBox" id="linearGradient-3" node-id="12" x1="0.981179" x2="0.004479895" y1="0.5" y2="0.5"><stop offset="0" stop-color="#c2c3ca"></stop><stop offset="0.49530157" stop-color="#b5b6b9"></stop><stop offset="1" stop-color="#dde0e4"></stop></linearGradient><linearGradient gradientUnits="objectBoundingBox" id="linearGradient-4" node-id="16" x1="0.004479895" x2="1" y1="0.5" y2="0.5"><stop offset="0" stop-color="#8b8d90"></stop><stop offset="0.50139314" stop-color="#a5a9ad"></stop><stop offset="1" stop-color="#97989b"></stop></linearGradient><linearGradient gradientUnits="objectBoundingBox" id="linearGradient-5" node-id="20" x1="0.5" x2="0.5" y1="0" y2="1"><stop offset="0" stop-color="#454545"></stop><stop offset="1" stop-color="#eeeeee"></stop></linearGradient><linearGradient gradientUnits="objectBoundingBox" id="linearGradient-6" node-id="23" x1="0.4002772" x2="0.55712" y1="0.3442058" y2="0.6557942"><stop offset="0" stop-color="#5cc1d5"></stop><stop offset="0.5156922" stop-color="#55b7d0"></stop><stop offset="1" stop-color="#2b74ae"></stop></linearGradient><filter height="1.045" id="filter-8" node-id="28" width="1.025" x="-0.013" y="-0.023"><feGaussianBlur color-interpolation-filters="linearRGB" in="SourceAlpha" result="shadowBlurInner1" stdDeviation="9.5 9.5"></feGaussianBlur><feOffset color-interpolation-filters="linearRGB" dx="0" dy="0" in="shadowBlurInner1" result="shadowOffsetInner1"></feOffset><feComposite color-interpolation-filters="linearRGB" in="shadowOffsetInner1" in2="SourceAlpha" k1="0" k2="-1" k3="1" k4="0" operator="arithmetic" result="shadowInnerInner1"></feComposite><feColorMatrix color-interpolation-filters="linearRGB" in="shadowInnerInner1" result="result4" type="matrix" values="0 0 0 0 0 0 0 0 0 0 0 0 0 0 0 0 0 0 0.5 0"></feColorMatrix></filter><linearGradient gradientUnits="objectBoundingBox" id="linearGradient-9" node-id="33" x1="0.004479895" x2="0.981179" y1="0.5" y2="0.5"><stop offset="0" stop-color="#c2c3ca"></stop><stop offset="0.49530157" stop-color="#aeafb0"></stop><stop offset="1" stop-color="#dde0e4"></stop></linearGradient><linearGradient gradientUnits="objectBoundingBox" id="linearGradient-10" node-id="37" x1="0.004479895" x2="0.981179" y1="0.5" y2="0.5"><stop offset="0" stop-color="#c2c3ca"></stop><stop offset="0.49530157" stop-color="#aeafb0"></stop><stop offset="1" stop-color="#dde0e4"></stop></linearGradient></defs><g node-id="152"><g node-id="153"><path d="M 341.20 755.00 L 672.80 755.00 L 715.00 815.00 L 299.00 815.00 Z" fill="url(#linearGradient-1)" fill-rule="evenodd" group-id="1,2" id="矩形备份-4" node-id="44" stroke-linecap="butt" stroke-width="1" target-height="60" target-width="416" target-x="299" target-y="755"></path><path d="M 299.00 815.00 L 715.00 815.00 L 715.00 824.00 L 299.00 824.00 Z" fill="url(#linearGradient-2)" fill-rule="evenodd" group-id="1,2" id="矩形备份-5" node-id="45" stroke-linecap="butt" stroke-width="1" target-height="9" target-width="416" target-x="299" target-y="815"></path></g><path d="M 564.00 642.00 L 564.00 772.00 L 460.00 772.00 L 460.00 642.00 L 482.55 642.00 L 480.62 645.88 L 479.19 650.05 L 478.31 654.41 L 478.00 659.00 L 478.32 663.67 L 479.22 668.07 L 480.67 672.23 L 482.66 676.18 L 485.08 679.77 L 487.96 683.04 L 491.23 685.92 L 494.82 688.34 L 498.77 690.33 L 502.93 691.78 L 507.33 692.68 L 512.00 693.00 L 516.67 692.68 L 521.07 691.78 L 525.23 690.33 L 529.18 688.34 L 532.77 685.92 L 536.04 683.04 L 538.92 679.77 L 541.34 676.18 L 543.33 672.23 L 544.78 668.07 L 545.68 663.67 L 546.00 659.00 L 545.69 654.41 L 544.81 650.05 L 543.38 645.88 L 541.45 642.00 L 564.00 642.00 Z" fill="url(#linearGradient-3)" fill-rule="evenodd" group-id="1" id="形状结合" node-id="46" stroke-linecap="butt" stroke-width="1" target-height="130.0011" target-width="104" target-x="460" target-y="641.9989"></path><path d="M 460.00 772.00 L 564.00 772.00 L 564.00 795.00 L 460.00 795.00 Z" fill="url(#linearGradient-4)" fill-rule="evenodd" group-id="1" id="矩形备份-2" node-id="47" stroke-linecap="butt" stroke-width="1" target-height="23" target-width="104" target-x="460" target-y="772"></path><path d="M 512.59 625.00 L 516.48 625.27 L 520.20 625.89 L 523.75 626.85 L 527.17 628.15 L 531.52 630.39 L 535.47 633.11 L 539.06 636.32 L 542.23 639.96 L 544.89 643.96 L 547.07 648.34 L 548.32 651.78 L 549.23 655.36 L 549.79 659.09 L 550.00 663.00 L 549.79 666.95 L 549.22 670.71 L 548.29 674.32 L 547.01 677.79 L 544.80 682.20 L 542.09 686.22 L 538.87 689.87 L 535.22 693.09 L 531.20 695.80 L 526.79 698.01 L 523.32 699.29 L 519.71 700.22 L 515.95 700.79 L 512.00 701.00 L 508.05 700.79 L 504.29 700.22 L 500.68 699.29 L 497.21 698.01 L 492.80 695.80 L 488.78 693.09 L 485.13 689.87 L 481.91 686.22 L 479.20 682.20 L 476.99 677.79 L 475.71 674.32 L 474.78 670.71 L 474.21 666.95 L 474.00 663.00 L 474.21 659.05 L 474.78 655.29 L 475.71 651.68 L 476.99 648.21 L 479.20 643.80 L 481.91 639.78 L 485.13 636.13 L 488.78 632.91 L 492.80 630.20 L 497.21 627.99 L 500.68 626.71 L 504.29 625.78 L 508.05 625.21 L 512.00 625.00 L 511.41 625.00 L 506.81 625.40 L 502.48 626.35 L 498.38 627.84 L 494.50 629.84 L 490.97 632.28 L 487.77 635.15 L 484.94 638.41 L 482.56 641.98 L 480.62 645.89 L 479.19 650.02 L 478.32 654.38 L 478.00 659.00 L 478.32 663.67 L 479.22 668.07 L 480.67 672.23 L 482.66 676.18 L 485.08 679.77 L 487.96 683.04 L 491.23 685.92 L 494.82 688.34 L 498.77 690.33 L 502.93 691.78 L 507.33 692.68 L 512.00 693.00 L 516.67 692.68 L 521.07 691.78 L 525.23 690.33 L 529.18 688.34 L 532.77 685.92 L 536.04 683.04 L 538.92 679.77 L 541.34 676.18 L 543.33 672.23 L 544.78 668.07 L 545.68 663.67 L 546.00 659.00 L 545.69 654.42 L 544.83 650.11 L 543.43 646.01 L 541.52 642.12 L 539.18 638.57 L 536.41 635.33 L 533.25 632.46 L 529.78 630.02 L 525.96 627.99 L 521.92 626.47 L 517.66 625.47 L 513.12 625.02 Z" fill="url(#linearGradient-5)" fill-rule="evenodd" group-id="1" id="形状结合" node-id="48" stroke-linecap="butt" stroke-width="1" target-height="76" target-width="76" target-x="474" target-y="625"></path><path d="M 123.00 192.00 L 901.00 192.00 L 901.00 642.00 L 123.00 642.00 Z" fill="#040601" fill-rule="evenodd" group-id="1" id="矩形" node-id="49" stroke-linecap="butt" stroke-width="1" target-height="450" target-width="778" target-x="123" target-y="192"></path><path d="M 135.00 203.00 L 891.00 203.00 L 891.00 625.00 L 135.00 625.00 Z" fill="url(#linearGradient-6)" fill-rule="evenodd" group-id="1,3" node-id="146" stroke-linecap="butt" stroke-width="1" target-height="422" target-width="756" target-x="135" target-y="203"></path><path d="M 135.00 203.00 L 891.00 203.00 L 891.00 625.00 L 135.00 625.00 Z" fill="#000000" fill-rule="evenodd" filter="url(#filter-8)" group-id="1,3,8" node-id="150" stroke-linecap="butt" stroke-width="1" target-height="422" target-width="756" target-x="135" target-y="203"></path><path d="M 534.00 203.00 L 891.00 203.00 L 891.00 625.00 Z" fill="#56dfe4" fill-opacity="0.4044829" fill-rule="evenodd" group-id="1,4" id="矩形备份-9" node-id="53" stroke-linecap="butt" stroke-opacity="0.4044829" stroke-width="1" target-height="422" target-width="357" target-x="534" target-y="203"></path><path d="M 492.00 625.50 L 135.00 625.50 L 135.00 202.50 Z" fill="#509ccb" fill-opacity="0.3523763" fill-rule="evenodd" group-id="1,5" id="矩形备份-10" node-id="54" stroke-linecap="butt" stroke-opacity="0.3523763" stroke-width="1" target-height="423" target-width="357" target-x="135" target-y="202.5"></path><path d="M 617.00 203.00 L 891.00 203.00 L 891.00 527.56 Z" fill="#56dfe4" fill-opacity="0.4044829" fill-rule="evenodd" group-id="1,6" id="矩形备份-8" node-id="55" stroke-linecap="butt" stroke-opacity="0.4044829" stroke-width="1" target-height="324.5647" target-width="274" target-x="617" target-y="203"></path><path d="M 409.00 625.50 L 135.00 625.50 L 135.00 300.17 Z" fill="#509ccb" fill-opacity="0.3523763" fill-rule="evenodd" group-id="1,7" id="矩形备份-11" node-id="56" stroke-linecap="butt" stroke-opacity="0.3523763" stroke-width="1" target-height="325.33386" target-width="274" target-x="135" target-y="300.16614"></path><path d="M 685.00 203.00 L 891.00 203.00 L 891.00 440.00 Z" fill="#56dfe4" fill-rule="evenodd" group-id="1" id="矩形备份-7" node-id="57" stroke-linecap="butt" stroke-width="1" target-height="237.0047" target-width="206" target-x="685" target-y="203"></path><path d="M 341.00 624.84 L 135.00 624.84 L 135.00 387.27 Z" fill="#509ccb" fill-rule="evenodd" group-id="1" id="矩形备份-12" node-id="58" stroke-linecap="butt" stroke-width="1" target-height="237.56628" target-width="206" target-x="135" target-y="387.2738"></path><path d="M 123.00 642.00 L 901.00 642.00 L 901.00 646.00 L 123.00 646.00 Z" fill="url(#linearGradient-9)" fill-rule="evenodd" group-id="1" id="矩形备份-3" node-id="59" stroke-linecap="butt" stroke-width="1" target-height="4" target-width="778" target-x="123" target-y="642"></path><path d="M 123.00 190.00 L 901.00 190.00 L 901.00 192.00 L 123.00 192.00 Z" fill="url(#linearGradient-10)" fill-rule="evenodd" group-id="1" id="矩形备份-6" node-id="60" stroke-linecap="butt" stroke-width="1" target-height="2" target-width="778" target-x="123" target-y="190"></path></g></svg>