<?xml version="1.0" standalone="no"?><!DOCTYPE svg PUBLIC "-//W3C//DTD SVG 1.1//EN" "http://www.w3.org/Graphics/SVG/1.1/DTD/svg11.dtd"><svg height="1024" legacy-metrics="false" node-id="1" sillyvg="true" template-height="1024" template-width="1024" version="1.1" viewBox="0 0 1024 1024" width="1024" xmlns="http://www.w3.org/2000/svg" xmlns:xlink="http://www.w3.org/1999/xlink"><defs node-id="43"><radialGradient cx="0.49958897" cy="0.5091237" fx="0.49958897" fy="0.5091237" gradientUnits="objectBoundingBox" id="radialGradient-1" node-id="5" r="0.49137422"><stop offset="0" stop-color="#48d1ff"></stop><stop offset="1" stop-color="#06549f"></stop></radialGradient><radialGradient cx="0.52767485" cy="0.47643232" fx="0.52767485" fy="0.47643232" gradientTransform="matrix(0.00000000000000006123233995736766 0.988055 -1.036331 0.00000000000000006269897856862 1.021416250992 -0.04493992212500003)" gradientUnits="objectBoundingBox" id="radialGradient-2" node-id="8" r="0.50604475"><stop offset="0" stop-color="#cdedf9"></stop><stop offset="0.4268466" stop-color="#59d5e7"></stop><stop offset="0.8557281" stop-color="#0078d9"></stop><stop offset="1" stop-color="#56dfe4"></stop></radialGradient><linearGradient gradientUnits="objectBoundingBox" id="linearGradient-3" node-id="13" x1="1" x2="0" y1="0.5" y2="0.5"><stop offset="0" stop-color="#b15339"></stop><stop offset="1" stop-color="#e3b2a0"></stop></linearGradient><linearGradient gradientUnits="objectBoundingBox" id="linearGradient-4" node-id="16" x1="0.66061103" x2="0.5" y1="0.26746887" y2="1"><stop offset="0" stop-color="#cd280a"></stop><stop offset="0.45961568" stop-color="#ff8a00"></stop><stop offset="1" stop-color="#ffef1a"></stop></linearGradient><linearGradient gradientUnits="objectBoundingBox" id="linearGradient-5" node-id="20" x1="0.6037599" x2="0.33246905" y1="0.1259162" y2="0.88399225"><stop offset="0" stop-color="#ff7e00"></stop><stop offset="1" stop-color="#fff02b"></stop></linearGradient><linearGradient gradientUnits="objectBoundingBox" id="linearGradient-6" node-id="23" x1="0.59091115" x2="0.35321468" y1="0.1259162" y2="0.88399225"><stop offset="0" stop-color="#ffc50e"></stop><stop offset="1" stop-color="#fff356"></stop></linearGradient><linearGradient gradientUnits="objectBoundingBox" id="linearGradient-7" node-id="26" x1="0.6015369" x2="0.3360583" y1="0.1259162" y2="0.88399225"><stop offset="0" stop-color="#fff02b"></stop><stop offset="1" stop-color="#ffffff"></stop></linearGradient></defs><g node-id="45"><path d="M 753.00 392.00 L 752.73 403.17 L 751.97 414.14 L 750.72 424.90 L 749.00 435.48 L 746.79 445.88 L 744.10 456.24 L 740.99 466.35 L 737.46 476.24 L 733.50 485.90 L 729.11 495.35 L 724.30 504.62 L 719.12 513.61 L 713.58 522.33 L 707.66 530.78 L 701.37 538.98 L 694.72 546.90 L 687.77 554.49 L 680.49 561.77 L 672.90 568.72 L 664.98 575.37 L 656.78 581.66 L 648.33 587.58 L 639.61 593.12 L 630.62 598.30 L 621.35 603.11 L 611.90 607.50 L 602.24 611.46 L 592.35 614.99 L 582.24 618.10 L 571.88 620.79 L 561.48 623.00 L 550.90 624.72 L 540.14 625.97 L 529.17 626.73 L 518.00 627.00 L 506.83 626.73 L 495.86 625.97 L 485.10 624.72 L 474.52 623.00 L 464.12 620.79 L 453.76 618.10 L 443.65 614.99 L 433.76 611.46 L 424.10 607.50 L 414.65 603.11 L 405.38 598.30 L 396.39 593.12 L 387.67 587.58 L 379.22 581.66 L 371.02 575.37 L 363.10 568.72 L 355.51 561.77 L 348.23 554.49 L 341.28 546.90 L 334.63 538.98 L 328.34 530.78 L 322.42 522.33 L 316.88 513.61 L 311.70 504.62 L 306.89 495.35 L 302.50 485.90 L 298.54 476.24 L 295.01 466.35 L 291.90 456.24 L 289.21 445.88 L 287.00 435.48 L 285.28 424.90 L 284.03 414.14 L 283.27 403.17 L 283.00 392.00 L 283.27 380.83 L 284.03 369.86 L 285.28 359.10 L 287.00 348.52 L 289.21 338.12 L 291.90 327.76 L 295.01 317.65 L 298.54 307.76 L 302.50 298.10 L 306.89 288.65 L 311.70 279.38 L 316.88 270.39 L 322.42 261.67 L 328.34 253.22 L 334.63 245.02 L 341.28 237.10 L 348.23 229.51 L 355.51 222.23 L 363.10 215.28 L 371.02 208.63 L 379.22 202.34 L 387.67 196.42 L 396.39 190.88 L 405.38 185.70 L 414.65 180.89 L 424.10 176.50 L 433.76 172.54 L 443.65 169.01 L 453.76 165.90 L 464.12 163.21 L 474.52 161.00 L 485.10 159.28 L 495.86 158.03 L 506.83 157.27 L 518.00 157.00 L 529.17 157.27 L 540.14 158.03 L 550.90 159.28 L 561.48 161.00 L 571.88 163.21 L 582.24 165.90 L 592.35 169.01 L 602.24 172.54 L 611.90 176.50 L 621.35 180.89 L 630.62 185.70 L 639.61 190.88 L 648.33 196.42 L 656.78 202.34 L 664.98 208.63 L 672.90 215.28 L 680.49 222.23 L 687.77 229.51 L 694.72 237.10 L 701.37 245.02 L 707.66 253.22 L 713.58 261.67 L 719.12 270.39 L 724.30 279.38 L 729.11 288.65 L 733.50 298.10 L 737.46 307.76 L 740.99 317.65 L 744.10 327.76 L 746.79 338.12 L 749.00 348.52 L 750.72 359.10 L 751.97 369.86 L 752.73 380.83 L 753.00 392.00 Z" fill="url(#radialGradient-1)" fill-rule="evenodd" group-id="1" id="椭圆形" node-id="31" stroke-linecap="butt" stroke-width="1" target-height="470" target-width="470" target-x="283" target-y="157"></path><path d="M 282.86 379.59 L 282.86 387.85 L 282.14 387.85 L 282.14 379.59 L 282.86 379.59 Z M 282.14 399.25 L 282.14 391.38 L 282.86 391.38 L 282.86 399.25 L 282.14 399.25 Z M 322.11 503.58 L 322.72 503.84 L 323.13 504.37 L 326.02 509.22 L 329.08 513.96 L 335.55 523.19 L 337.19 525.64 L 338.17 526.73 L 339.45 527.58 L 339.83 529.01 L 340.47 530.25 L 342.22 532.46 L 342.65 532.92 L 344.06 534.57 L 345.74 536.62 L 347.60 538.56 L 351.66 542.11 L 351.19 542.43 L 350.69 542.47 L 350.45 542.45 L 350.10 542.44 L 347.72 541.61 L 346.75 540.92 L 346.01 539.74 L 345.46 539.45 L 345.20 539.38 L 344.96 539.30 L 342.62 536.73 L 341.36 535.54 L 339.94 534.48 L 339.24 533.81 L 338.72 532.93 L 338.51 532.52 L 338.29 532.12 L 336.83 529.53 L 335.15 527.11 L 333.08 524.68 L 331.21 522.09 L 330.83 521.65 L 330.76 521.22 L 330.46 520.89 L 329.82 520.72 L 329.76 520.54 L 330.06 520.10 L 329.85 519.40 L 329.29 518.93 L 328.58 518.66 L 328.26 518.22 L 328.08 516.97 L 327.95 516.96 L 327.54 516.81 L 327.35 516.56 L 327.30 515.79 L 327.31 515.78 L 325.20 510.56 L 322.56 505.60 L 322.11 503.58 Z M 697.44 539.37 L 697.08 540.18 L 696.32 540.62 L 696.40 539.93 L 696.76 539.53 L 697.44 539.37 Z M 701.37 534.67 L 701.13 535.28 L 700.76 535.78 L 699.79 536.60 L 699.93 535.61 L 700.43 535.00 L 701.37 534.67 Z M 350.04 533.54 L 350.22 533.69 L 350.45 533.65 L 350.97 533.45 L 351.18 533.50 L 351.40 533.86 L 351.89 534.85 L 352.02 535.35 L 351.85 535.94 L 351.41 535.79 L 351.06 535.39 L 350.94 535.23 L 350.44 534.81 L 350.14 534.81 L 349.66 535.08 L 349.37 534.58 L 348.90 534.25 L 348.76 533.45 L 348.71 533.08 L 348.89 532.81 L 349.26 532.72 L 349.56 532.87 L 350.04 533.54 Z M 704.15 531.15 L 703.89 531.83 L 703.31 532.26 L 703.42 531.47 L 703.65 531.24 L 704.15 531.15 Z M 714.21 514.78 L 714.52 514.93 L 714.38 515.23 L 714.08 515.10 L 714.21 514.78 Z M 391.98 494.31 L 392.46 494.45 L 392.85 494.73 L 393.42 495.53 L 393.95 496.77 L 394.47 498.03 L 396.28 501.01 L 398.42 503.64 L 400.91 505.96 L 403.78 507.97 L 405.24 509.05 L 406.44 510.38 L 407.39 511.98 L 407.73 512.89 L 407.54 513.79 L 407.02 514.12 L 405.68 514.58 L 404.33 514.94 L 403.66 514.82 L 402.88 514.31 L 401.17 512.58 L 399.71 510.70 L 398.49 508.63 L 397.96 507.69 L 397.34 506.91 L 396.57 506.32 L 395.60 505.97 L 394.97 505.72 L 394.62 505.36 L 394.21 504.38 L 393.72 503.46 L 391.68 500.97 L 389.97 498.24 L 389.58 497.55 L 389.42 496.96 L 389.61 496.52 L 390.58 496.17 L 391.01 496.00 L 391.24 495.58 L 391.27 495.18 L 391.27 495.01 L 391.38 494.49 L 391.57 494.35 L 391.98 494.31 Z M 714.99 513.60 L 715.30 513.75 L 715.17 514.05 L 714.85 513.93 L 714.99 513.60 Z M 716.91 511.38 L 716.76 511.69 L 716.44 511.57 L 716.59 511.26 L 716.91 511.38 Z M 573.45 165.92 L 574.38 166.15 L 575.77 166.46 L 577.08 166.77 L 578.42 166.89 L 578.84 167.76 L 578.85 167.82 L 578.84 167.76 L 578.42 166.89 L 582.08 167.77 L 585.68 168.87 L 587.47 169.45 L 590.17 170.30 L 594.09 171.53 L 597.86 172.93 L 599.52 173.59 L 600.37 173.90 L 601.21 174.21 L 604.12 175.45 L 605.49 176.21 L 606.79 177.15 L 607.14 177.45 L 609.12 177.54 L 611.06 177.85 L 613.00 177.79 L 613.06 177.05 L 615.27 177.83 L 617.40 178.77 L 621.59 180.83 L 628.92 184.51 L 629.79 184.90 L 630.13 185.19 L 630.33 185.69 L 630.77 185.70 L 631.07 185.98 L 631.11 186.08 L 631.57 186.11 L 631.92 186.37 L 631.99 186.47 L 634.30 187.45 L 634.57 187.65 L 634.66 187.94 L 634.65 188.04 L 635.08 188.07 L 635.38 188.34 L 635.42 188.43 L 635.43 188.43 L 636.69 188.84 L 637.85 189.44 L 640.07 190.82 L 646.69 194.98 L 647.51 195.45 L 647.84 195.76 L 647.99 196.28 L 648.79 196.36 L 649.04 196.59 L 649.17 197.07 L 650.03 197.18 L 650.65 197.72 L 650.73 197.85 L 650.74 197.85 L 650.74 197.86 L 651.27 198.25 L 653.98 199.81 L 656.54 201.59 L 661.49 205.36 L 665.31 208.21 L 667.13 209.74 L 668.82 211.43 L 668.82 212.26 L 669.05 212.97 L 669.93 214.25 L 670.00 215.56 L 671.16 217.89 L 671.53 218.68 L 672.85 221.16 L 673.66 222.31 L 674.64 223.36 L 674.97 223.72 L 675.04 224.19 L 675.21 224.87 L 675.54 225.44 L 676.39 226.48 L 678.69 229.26 L 681.21 231.79 L 686.71 236.41 L 688.28 238.03 L 689.09 238.81 L 690.07 239.40 L 690.35 239.50 L 690.96 239.71 L 691.13 240.32 L 694.25 243.76 L 696.97 247.64 L 699.52 251.66 L 700.91 253.57 L 702.50 255.36 L 702.87 256.02 L 702.93 256.75 L 702.93 257.05 L 702.93 257.19 L 702.50 258.05 L 702.46 258.91 L 702.56 260.69 L 704.67 267.30 L 704.74 267.77 L 704.50 268.15 L 703.87 267.71 L 703.38 267.09 L 702.87 266.52 L 702.15 266.18 L 704.29 272.38 L 704.78 274.15 L 704.87 275.96 L 705.02 277.24 L 705.41 278.37 L 706.00 279.43 L 706.79 280.48 L 708.87 283.38 L 710.56 286.47 L 711.92 289.74 L 713.02 293.13 L 713.04 293.83 L 712.77 294.42 L 711.94 295.51 L 709.64 288.95 L 708.80 286.58 L 708.19 285.54 L 707.31 284.82 L 706.36 284.22 L 705.72 283.55 L 704.82 281.86 L 703.19 278.55 L 702.48 277.60 L 702.00 277.31 L 701.40 277.30 L 701.01 277.59 L 700.93 278.02 L 700.95 279.02 L 700.86 279.48 L 700.47 279.71 L 699.54 277.55 L 698.66 275.35 L 698.00 274.40 L 697.02 273.58 L 696.91 279.61 L 697.24 281.02 L 698.13 282.09 L 700.60 283.77 L 702.44 284.38 L 703.33 284.72 L 703.96 285.39 L 704.13 286.26 L 703.95 287.16 L 703.39 288.97 L 703.28 290.53 L 703.38 291.30 L 703.65 292.05 L 705.11 295.51 L 705.87 297.23 L 706.84 298.88 L 708.88 302.26 L 710.74 305.77 L 710.96 306.33 L 710.97 306.86 L 710.81 307.57 L 710.87 308.07 L 711.17 308.46 L 711.86 308.78 L 712.48 309.31 L 712.76 310.18 L 713.19 313.56 L 713.24 316.93 L 712.91 320.31 L 712.84 321.39 L 713.17 322.36 L 713.73 323.70 L 713.77 324.94 L 713.47 326.19 L 712.97 327.49 L 712.13 329.86 L 711.45 332.29 L 711.12 333.21 L 710.68 333.81 L 710.05 334.10 L 709.01 333.99 L 708.28 333.92 L 707.93 335.02 L 707.21 335.82 L 705.40 337.18 L 704.72 338.00 L 704.44 339.16 L 703.52 339.73 L 703.19 339.61 L 702.86 338.83 L 702.12 336.84 L 700.94 336.95 L 700.48 337.25 L 700.04 337.83 L 698.63 340.48 L 697.79 342.54 L 697.40 344.57 L 697.58 346.57 L 698.33 348.62 L 699.90 351.28 L 701.53 353.95 L 702.86 356.68 L 703.92 359.49 L 705.05 363.86 L 705.71 368.43 L 705.61 370.41 L 705.06 372.21 L 704.03 373.89 L 701.71 376.75 L 699.56 379.73 L 699.22 380.20 L 698.66 380.30 L 698.26 379.91 L 698.21 379.33 L 697.97 376.23 L 697.63 375.27 L 697.07 374.57 L 696.26 374.09 L 695.84 372.94 L 694.90 370.75 L 693.81 368.64 L 691.53 364.46 L 691.22 364.05 L 690.87 363.83 L 690.08 363.71 L 689.71 363.85 L 689.64 364.10 L 689.79 364.77 L 689.89 366.68 L 689.75 368.57 L 689.42 372.35 L 689.27 376.63 L 689.46 378.75 L 690.15 381.00 L 693.06 386.93 L 694.49 389.90 L 695.72 392.96 L 695.70 395.09 L 695.46 397.30 L 695.57 399.47 L 696.05 401.63 L 696.33 402.90 L 696.29 403.52 L 696.00 404.06 L 695.50 404.52 L 694.94 404.76 L 694.39 404.68 L 693.78 404.04 L 692.35 401.52 L 691.43 399.19 L 690.89 396.82 L 690.41 391.95 L 690.34 390.87 L 690.10 388.15 L 689.64 385.48 L 688.82 383.28 L 687.80 381.19 L 687.29 379.82 L 687.00 378.48 L 687.00 377.11 L 687.36 375.57 L 687.66 374.24 L 687.75 372.79 L 687.55 369.88 L 687.10 366.69 L 686.48 363.54 L 684.99 357.27 L 684.20 354.08 L 683.46 352.33 L 682.01 350.56 L 681.26 352.56 L 680.64 353.39 L 679.87 353.73 L 678.84 353.63 L 678.17 353.34 L 677.78 352.96 L 677.62 352.45 L 677.73 351.60 L 678.01 349.55 L 677.85 347.63 L 677.37 345.75 L 676.72 343.88 L 675.42 340.16 L 675.19 339.84 L 674.91 339.69 L 673.97 339.78 L 673.47 339.58 L 673.14 339.17 L 672.94 338.60 L 672.68 337.39 L 671.99 334.70 L 671.61 333.38 L 671.08 332.13 L 670.32 331.00 L 669.20 329.99 L 668.66 329.58 L 668.02 329.38 L 668.06 330.37 L 668.27 331.33 L 668.44 332.29 L 668.38 333.28 L 666.11 333.80 L 664.96 333.98 L 663.70 333.83 L 663.06 333.86 L 662.50 334.25 L 662.15 334.89 L 662.08 335.77 L 662.05 337.07 L 661.68 338.09 L 661.00 338.89 L 659.94 339.52 L 658.94 340.05 L 658.18 340.70 L 657.56 341.51 L 657.06 342.45 L 655.95 343.91 L 655.37 344.62 L 654.96 345.45 L 653.71 345.99 L 652.62 346.68 L 651.75 347.60 L 651.11 348.89 L 650.75 349.51 L 650.21 349.96 L 648.87 350.58 L 647.90 351.00 L 647.49 351.30 L 647.16 351.75 L 646.85 353.79 L 646.77 355.82 L 646.99 359.90 L 647.16 361.09 L 647.14 362.22 L 646.19 366.00 L 645.95 367.91 L 645.99 369.87 L 645.79 370.38 L 645.24 370.60 L 644.31 371.58 L 643.56 372.70 L 642.11 374.98 L 641.17 376.00 L 640.64 376.24 L 640.15 376.00 L 639.36 374.86 L 638.60 373.08 L 637.37 368.31 L 636.73 365.94 L 635.82 363.64 L 634.89 361.83 L 634.51 360.89 L 634.29 359.89 L 633.36 354.57 L 631.86 349.37 L 631.52 347.66 L 630.76 342.67 L 629.84 337.72 L 629.55 335.86 L 629.74 334.00 L 629.92 332.43 L 629.74 330.91 L 628.67 327.88 L 628.42 329.99 L 628.13 330.94 L 627.63 331.69 L 626.88 332.20 L 625.63 332.46 L 624.69 332.35 L 623.99 331.97 L 622.90 330.71 L 622.59 330.26 L 622.06 329.53 L 621.34 328.27 L 621.39 327.57 L 621.86 327.00 L 622.65 326.53 L 622.96 326.36 L 623.77 325.86 L 624.25 325.24 L 623.64 325.05 L 621.37 324.66 L 620.72 324.27 L 620.27 323.65 L 619.98 322.82 L 619.70 321.44 L 619.44 320.50 L 619.19 320.17 L 618.87 320.18 L 618.11 320.40 L 617.69 320.20 L 617.06 319.39 L 615.89 318.07 L 614.97 316.61 L 614.25 315.54 L 613.45 315.00 L 612.48 314.82 L 611.29 314.95 L 609.05 315.25 L 606.80 315.28 L 602.31 315.20 L 601.67 315.01 L 601.26 314.45 L 597.32 313.56 L 595.83 313.16 L 594.66 312.44 L 593.76 311.37 L 593.10 309.88 L 592.34 307.98 L 591.73 307.37 L 590.88 307.38 L 589.02 308.23 L 587.72 308.78 L 586.46 308.86 L 585.17 308.50 L 583.14 306.75 L 581.52 304.74 L 580.15 302.52 L 578.92 300.18 L 578.02 297.58 L 577.44 296.40 L 576.53 295.64 L 574.34 294.90 L 573.22 294.46 L 572.13 293.84 L 572.18 294.40 L 572.36 294.81 L 572.48 295.16 L 572.33 295.39 L 571.56 296.16 L 571.41 296.90 L 571.86 298.51 L 572.88 301.24 L 574.29 303.81 L 576.02 306.49 L 576.54 307.95 L 576.59 309.65 L 576.76 310.26 L 577.07 310.52 L 577.75 310.73 L 578.80 308.99 L 579.29 309.18 L 579.28 311.83 L 579.35 313.06 L 579.76 313.89 L 580.49 314.48 L 581.61 314.86 L 582.73 315.20 L 583.62 315.36 L 584.68 315.21 L 585.73 314.82 L 586.70 314.23 L 587.49 313.47 L 587.96 312.64 L 588.26 312.39 L 589.00 311.60 L 589.20 311.34 L 589.87 310.63 L 590.25 310.46 L 590.68 310.46 L 591.06 310.81 L 591.12 311.52 L 591.16 313.10 L 591.95 314.82 L 593.00 316.27 L 594.30 317.53 L 595.81 318.61 L 597.34 319.78 L 598.44 321.12 L 599.09 322.70 L 599.23 324.65 L 598.27 326.30 L 597.16 327.85 L 596.09 329.42 L 595.30 331.05 L 594.71 332.58 L 594.03 333.84 L 593.12 334.95 L 591.82 335.95 L 588.09 338.48 L 586.14 339.54 L 583.93 340.18 L 582.07 340.79 L 580.52 341.93 L 579.69 343.40 L 578.56 344.43 L 577.21 345.20 L 575.76 345.82 L 573.86 346.49 L 572.05 347.37 L 570.04 348.02 L 568.12 348.70 L 566.35 349.54 L 564.49 349.74 L 563.28 349.91 L 562.15 350.51 L 560.97 351.05 L 559.88 351.17 L 558.82 350.92 L 557.89 350.35 L 557.21 349.50 L 556.75 348.31 L 556.36 345.75 L 556.18 343.17 L 556.13 338.00 L 556.00 336.75 L 555.51 335.59 L 554.03 332.66 L 553.42 331.14 L 553.07 329.55 L 552.80 328.29 L 552.32 327.26 L 551.63 326.35 L 550.73 325.50 L 550.05 324.64 L 549.36 323.06 L 548.85 321.28 L 548.53 319.46 L 548.46 317.71 L 548.67 316.60 L 548.78 316.43 L 548.69 314.42 L 548.40 312.50 L 547.73 310.72 L 546.39 309.06 L 546.03 308.41 L 545.94 307.62 L 545.87 306.62 L 545.60 305.71 L 544.70 303.99 L 543.48 301.80 L 543.00 300.64 L 542.70 299.37 L 542.25 298.31 L 541.37 297.53 L 540.27 297.13 L 539.17 297.23 L 538.69 297.32 L 538.37 297.23 L 537.88 296.72 L 537.23 295.54 L 536.85 294.21 L 536.60 293.57 L 536.36 293.41 L 535.98 293.44 L 535.77 293.62 L 535.73 293.88 L 535.92 294.48 L 536.67 296.09 L 537.19 297.73 L 537.77 300.44 L 538.63 303.06 L 540.55 308.25 L 541.25 310.90 L 541.56 313.68 L 542.44 315.11 L 543.12 316.54 L 544.12 319.20 L 544.35 320.58 L 544.13 322.13 L 543.70 324.35 L 543.88 326.37 L 544.65 328.27 L 546.08 330.13 L 547.34 331.70 L 547.73 332.62 L 547.87 333.69 L 547.82 336.44 L 547.74 337.70 L 548.00 338.75 L 548.51 339.70 L 549.18 340.56 L 550.66 342.12 L 552.05 343.89 L 553.22 345.70 L 554.58 348.07 L 556.17 350.28 L 556.80 351.25 L 556.91 352.23 L 556.51 353.32 L 556.08 354.59 L 556.32 355.63 L 557.55 357.55 L 558.39 358.40 L 559.43 358.73 L 560.81 358.54 L 561.71 358.44 L 562.62 358.56 L 564.46 358.95 L 565.38 359.00 L 566.33 358.79 L 567.24 358.17 L 568.19 357.84 L 570.24 357.60 L 572.26 357.26 L 572.84 357.20 L 574.54 357.01 L 575.52 357.14 L 576.04 357.46 L 576.31 358.01 L 576.33 358.99 L 575.92 360.67 L 574.98 363.18 L 573.83 365.59 L 571.07 370.19 L 570.27 372.99 L 569.14 375.63 L 567.75 378.15 L 566.20 380.51 L 564.14 383.18 L 561.81 385.64 L 559.22 387.83 L 556.34 389.73 L 553.42 391.73 L 550.93 394.10 L 548.81 396.81 L 547.01 399.89 L 546.29 400.99 L 545.36 401.96 L 543.19 403.46 L 541.75 404.54 L 540.77 405.80 L 540.21 407.29 L 539.73 408.76 L 539.11 410.16 L 538.20 411.92 L 537.52 413.69 L 537.30 414.88 L 537.43 416.19 L 537.95 417.65 L 538.23 418.50 L 538.29 419.54 L 538.11 420.60 L 537.71 421.62 L 537.61 423.98 L 537.42 426.35 L 537.58 427.50 L 538.09 428.68 L 538.84 429.53 L 539.13 429.97 L 539.14 430.47 L 538.83 432.06 L 538.81 433.66 L 538.81 435.26 L 538.60 436.86 L 537.83 440.65 L 537.22 444.46 L 536.57 447.08 L 535.95 448.16 L 534.93 449.11 L 534.28 450.44 L 533.39 451.40 L 532.25 452.11 L 530.90 452.64 L 529.88 452.99 L 529.21 453.24 L 526.83 454.01 L 525.60 454.22 L 524.31 454.21 L 524.00 454.27 L 523.80 454.42 L 523.48 455.31 L 523.02 456.05 L 521.80 457.32 L 521.36 457.71 L 520.41 458.64 L 519.65 459.70 L 519.30 464.10 L 519.57 468.49 L 519.63 469.86 L 519.51 471.21 L 518.96 473.85 L 518.52 474.87 L 517.94 475.54 L 517.20 475.94 L 514.49 476.55 L 512.29 477.06 L 511.46 477.66 L 510.92 478.86 L 511.06 481.11 L 510.69 483.22 L 509.36 487.38 L 509.11 487.76 L 508.73 488.05 L 507.60 488.81 L 506.63 489.70 L 504.93 491.72 L 504.43 492.36 L 503.92 492.99 L 501.17 495.38 L 498.63 497.92 L 496.68 499.54 L 494.72 500.51 L 492.61 501.06 L 490.43 501.26 L 485.93 501.08 L 482.27 500.92 L 480.47 501.03 L 478.66 501.38 L 477.94 501.46 L 476.94 501.34 L 474.96 500.66 L 474.14 500.11 L 473.67 499.54 L 472.65 497.21 L 472.61 496.02 L 473.25 494.66 L 473.80 493.66 L 473.97 492.72 L 473.88 491.77 L 473.61 490.81 L 472.94 488.93 L 471.99 485.41 L 470.84 482.22 L 469.96 480.80 L 468.60 479.63 L 467.73 476.14 L 467.36 474.39 L 467.36 472.58 L 467.44 470.66 L 467.26 468.74 L 467.16 467.89 L 467.00 465.55 L 467.08 464.38 L 467.34 463.20 L 467.37 461.56 L 467.04 460.02 L 465.86 457.08 L 464.73 454.08 L 464.39 452.55 L 464.27 450.94 L 463.99 449.70 L 463.29 448.67 L 462.42 447.37 L 461.97 446.04 L 461.72 442.98 L 461.86 440.92 L 462.30 439.01 L 463.65 435.34 L 464.96 431.67 L 465.70 430.14 L 466.66 428.66 L 467.60 427.87 L 468.18 426.96 L 468.82 424.83 L 468.92 424.38 L 469.03 423.94 L 468.81 421.20 L 468.69 420.42 L 468.47 418.29 L 468.51 417.23 L 468.71 416.18 L 469.11 413.96 L 469.10 411.83 L 468.76 409.73 L 468.20 407.61 L 467.82 405.90 L 467.52 404.63 L 467.38 403.32 L 467.15 400.69 L 466.85 399.43 L 466.28 398.20 L 464.46 394.39 L 463.50 392.52 L 462.14 390.83 L 461.36 389.86 L 461.25 389.24 L 461.61 388.45 L 461.59 388.04 L 461.35 387.60 L 460.62 386.71 L 460.48 385.94 L 460.73 385.14 L 461.31 384.23 L 461.68 383.37 L 461.89 382.39 L 462.73 379.46 L 463.81 376.60 L 464.71 374.13 L 464.98 372.86 L 465.04 371.53 L 465.14 369.88 L 465.16 369.05 L 464.99 368.30 L 464.55 367.68 L 463.59 367.12 L 463.51 366.91 L 463.48 366.56 L 463.21 366.05 L 462.67 365.90 L 459.70 365.97 L 458.25 366.17 L 456.82 366.64 L 455.85 366.39 L 455.49 365.83 L 455.23 364.30 L 454.87 363.79 L 454.82 363.31 L 455.09 362.27 L 455.18 361.74 L 455.08 361.18 L 454.41 360.19 L 453.22 359.16 L 451.80 358.36 L 450.25 357.87 L 448.70 357.83 L 447.38 358.34 L 446.23 358.99 L 445.18 359.20 L 444.15 359.02 L 443.08 358.41 L 443.08 358.57 L 442.99 359.09 L 442.74 359.38 L 441.78 359.62 L 438.82 359.93 L 435.90 360.57 L 434.52 360.92 L 433.17 361.01 L 431.84 360.78 L 430.41 360.05 L 429.32 359.51 L 428.07 359.24 L 426.75 359.26 L 425.41 359.60 L 424.39 360.65 L 423.50 361.18 L 422.69 361.34 L 421.84 361.20 L 420.69 360.68 L 419.11 359.61 L 416.44 355.86 L 415.14 353.96 L 414.10 351.83 L 413.48 350.80 L 412.60 349.81 L 411.79 348.77 L 411.30 347.51 L 411.23 346.36 L 411.17 345.26 L 410.92 343.02 L 410.86 342.27 L 410.37 338.73 L 409.85 337.02 L 408.98 335.34 L 408.20 333.27 L 407.77 332.22 L 407.02 331.32 L 407.07 330.84 L 407.17 329.88 L 407.40 326.74 L 407.35 325.17 L 407.12 323.59 L 407.24 323.05 L 407.63 322.60 L 409.13 320.68 L 410.34 318.67 L 411.29 316.54 L 412.40 313.21 L 413.31 309.76 L 413.29 308.41 L 413.76 307.12 L 414.34 305.81 L 414.57 304.45 L 414.45 303.00 L 414.43 301.53 L 414.95 300.33 L 416.06 299.31 L 416.75 298.88 L 417.26 298.35 L 417.98 297.03 L 418.82 295.81 L 420.73 293.54 L 421.45 292.74 L 423.17 290.66 L 424.78 288.68 L 426.57 286.91 L 428.60 285.39 L 430.95 284.15 L 433.40 282.90 L 435.57 281.39 L 437.47 279.62 L 439.94 276.56 L 442.05 273.04 L 444.10 269.92 L 444.86 268.92 L 445.60 267.91 L 446.04 267.48 L 446.55 267.22 L 447.69 266.96 L 449.16 266.52 L 450.35 265.76 L 452.35 263.67 L 453.87 261.90 L 454.49 261.26 L 455.04 260.90 L 455.52 260.97 L 456.13 262.00 L 456.41 262.40 L 456.83 262.62 L 459.71 263.12 L 461.15 263.26 L 462.53 263.17 L 464.50 262.70 L 466.44 262.05 L 470.29 260.60 L 472.01 260.26 L 472.85 260.35 L 473.70 260.67 L 475.72 260.36 L 477.73 260.49 L 481.72 261.01 L 485.16 261.31 L 488.67 261.46 L 489.54 261.56 L 489.88 261.78 L 490.09 262.21 L 490.39 262.80 L 490.79 262.99 L 491.80 263.00 L 490.05 264.81 L 489.49 265.50 L 489.50 266.31 L 489.65 267.31 L 489.51 268.16 L 489.12 268.95 L 488.49 269.74 L 487.60 270.91 L 487.42 271.61 L 487.62 272.50 L 488.43 273.96 L 489.48 275.07 L 490.79 275.87 L 492.41 276.38 L 493.97 276.89 L 495.24 277.83 L 496.27 279.29 L 497.43 281.08 L 498.97 282.44 L 500.94 283.40 L 501.55 283.69 L 502.02 284.17 L 503.62 284.89 L 504.83 285.04 L 505.91 284.72 L 506.90 283.86 L 507.38 283.10 L 507.46 282.70 L 507.37 282.26 L 507.14 281.35 L 507.30 280.72 L 507.72 280.17 L 508.28 279.70 L 508.49 279.55 L 508.69 279.40 L 509.56 278.83 L 510.47 278.43 L 511.42 278.35 L 512.48 278.73 L 513.89 279.59 L 514.50 280.12 L 514.99 280.83 L 515.35 281.30 L 515.86 281.56 L 517.95 282.26 L 519.96 283.13 L 523.94 285.02 L 525.98 285.82 L 528.13 286.40 L 530.28 286.58 L 532.41 286.55 L 533.84 286.70 L 535.24 287.00 L 536.63 287.30 L 538.08 287.44 L 539.53 287.32 L 540.61 286.90 L 541.51 286.16 L 542.35 284.90 L 543.48 281.82 L 544.11 280.32 L 545.10 278.97 L 545.28 277.59 L 545.21 276.13 L 545.08 274.41 L 545.16 272.63 L 545.33 272.14 L 545.67 271.66 L 545.88 271.21 L 545.67 270.76 L 545.10 270.54 L 544.45 270.66 L 543.11 271.01 L 542.62 271.24 L 542.11 271.59 L 540.73 272.09 L 539.49 272.10 L 538.31 271.65 L 537.13 270.67 L 536.44 270.06 L 535.68 269.67 L 534.92 269.60 L 534.23 269.98 L 533.22 270.84 L 532.49 271.13 L 531.93 271.07 L 531.14 270.48 L 530.31 269.24 L 529.56 268.63 L 528.45 267.98 L 527.68 267.16 L 526.58 265.12 L 525.53 263.04 L 526.12 262.82 L 526.70 262.36 L 527.44 261.18 L 527.50 260.63 L 527.28 260.28 L 526.62 259.74 L 526.30 259.26 L 526.27 258.75 L 526.50 258.26 L 526.67 258.04 L 527.07 257.60 L 527.47 257.15 L 527.46 257.15 L 527.47 257.14 L 526.82 257.11 L 526.55 257.04 L 526.48 256.85 L 526.46 255.66 L 526.14 255.14 L 525.58 254.89 L 524.85 254.83 L 524.62 254.83 L 523.56 254.76 L 522.75 254.76 L 522.45 255.18 L 521.73 256.07 L 520.95 256.73 L 520.02 257.03 L 518.73 256.81 L 518.83 257.43 L 519.10 258.00 L 519.23 258.22 L 519.54 259.11 L 519.45 259.55 L 519.04 260.08 L 519.01 260.40 L 519.33 260.66 L 520.14 261.22 L 520.78 261.92 L 521.95 263.44 L 521.58 263.78 L 521.33 263.74 L 520.82 263.25 L 520.56 263.10 L 520.25 263.22 L 519.98 263.74 L 519.34 264.48 L 517.72 265.81 L 516.87 266.29 L 516.31 266.44 L 515.21 266.30 L 514.59 265.80 L 514.27 264.91 L 514.12 263.03 L 514.64 262.36 L 514.74 261.78 L 514.35 260.57 L 513.91 259.37 L 513.31 257.48 L 512.50 255.63 L 512.24 254.67 L 512.19 253.63 L 512.63 252.31 L 512.83 251.05 L 512.74 250.29 L 512.30 249.56 L 511.44 248.82 L 510.19 247.87 L 509.09 246.78 L 507.97 245.69 L 506.72 244.75 L 506.10 244.07 L 505.81 243.13 L 505.60 241.16 L 505.48 240.16 L 505.14 239.16 L 504.60 239.66 L 504.03 240.34 L 503.70 240.53 L 503.23 240.43 L 502.89 240.08 L 502.89 239.70 L 503.25 238.88 L 503.40 238.24 L 503.27 238.04 L 502.84 237.94 L 502.50 237.93 L 502.27 237.91 L 501.39 238.01 L 501.08 238.23 L 500.87 238.71 L 500.26 239.98 L 499.63 241.21 L 499.65 241.77 L 500.10 242.36 L 501.06 243.36 L 501.62 244.39 L 502.21 246.73 L 502.39 247.74 L 502.58 248.18 L 502.94 248.47 L 504.20 249.32 L 505.17 250.44 L 505.56 250.97 L 506.40 251.99 L 507.41 252.83 L 508.27 253.61 L 508.61 254.57 L 508.43 255.84 L 507.01 254.79 L 506.14 254.42 L 505.60 254.45 L 505.18 254.78 L 504.76 255.64 L 504.39 257.35 L 504.00 259.09 L 503.34 260.68 L 502.69 261.58 L 502.26 261.73 L 501.57 261.47 L 501.57 260.75 L 502.31 259.15 L 502.68 257.85 L 502.69 256.32 L 502.37 254.79 L 501.75 253.38 L 500.86 252.18 L 499.77 251.41 L 498.62 250.68 L 497.85 249.80 L 496.82 247.59 L 496.07 244.68 L 495.24 241.78 L 494.56 240.62 L 493.94 240.23 L 493.16 240.27 L 491.88 240.81 L 489.99 241.98 L 489.01 242.50 L 487.97 242.78 L 486.89 242.71 L 485.59 242.10 L 484.47 241.53 L 483.53 241.34 L 482.72 241.47 L 482.00 241.88 L 481.39 242.60 L 480.87 243.74 L 480.27 245.02 L 479.41 245.86 L 478.25 246.35 L 477.06 246.74 L 475.99 247.29 L 474.05 248.70 L 473.47 249.16 L 471.36 250.65 L 470.95 251.01 L 470.77 251.37 L 470.83 252.61 L 470.36 253.44 L 468.77 254.68 L 465.61 257.27 L 463.91 258.31 L 462.07 258.81 L 455.40 259.44 L 455.08 259.05 L 454.93 258.61 L 454.81 257.65 L 454.47 256.75 L 454.14 256.47 L 453.60 256.38 L 452.68 256.28 L 452.28 255.91 L 452.11 255.33 L 452.09 254.53 L 452.05 253.31 L 451.67 252.09 L 451.41 251.24 L 451.46 250.40 L 451.78 249.62 L 452.34 248.97 L 454.18 247.08 L 455.62 245.00 L 456.73 242.73 L 457.56 240.25 L 457.59 238.93 L 457.66 238.35 L 457.97 238.14 L 459.53 237.77 L 461.04 237.23 L 461.81 237.17 L 462.64 237.39 L 463.22 237.73 L 463.87 237.86 L 467.30 238.61 L 470.67 239.61 L 471.98 239.91 L 472.59 239.81 L 473.23 239.42 L 474.51 238.10 L 475.49 236.65 L 476.14 235.05 L 476.43 233.20 L 476.48 233.22 L 476.04 232.59 L 475.90 232.41 L 475.50 231.85 L 475.31 231.30 L 475.42 230.75 L 476.13 230.02 L 476.15 229.77 L 476.07 229.53 L 475.28 228.95 L 474.78 228.16 L 474.33 227.32 L 473.74 226.66 L 473.11 226.02 L 473.05 225.58 L 473.27 225.15 L 473.68 224.74 L 473.82 224.62 L 473.95 224.50 L 474.42 224.21 L 474.93 224.16 L 475.95 224.54 L 476.80 224.88 L 477.63 224.87 L 479.31 224.62 L 479.80 224.42 L 479.94 223.95 L 480.09 222.86 L 480.19 222.66 L 480.27 222.53 L 480.59 222.19 L 481.19 222.29 L 482.74 222.79 L 484.30 222.71 L 485.72 222.07 L 486.87 220.86 L 487.71 219.85 L 488.63 219.22 L 489.69 218.85 L 490.94 218.67 L 492.73 218.50 L 493.53 218.20 L 494.14 217.59 L 495.37 216.19 L 496.73 215.50 L 498.29 215.20 L 500.03 215.12 L 501.87 215.01 L 502.86 214.79 L 503.58 214.37 L 503.97 213.75 L 504.41 211.68 L 504.61 211.64 L 504.70 211.60 L 505.09 209.40 L 505.79 207.30 L 506.81 205.30 L 507.28 204.89 L 507.79 204.79 L 508.67 204.59 L 509.51 204.18 L 510.39 203.74 L 511.46 203.41 L 510.15 205.40 L 509.81 206.37 L 509.99 207.54 L 509.94 207.73 L 509.64 207.89 L 509.45 207.97 L 509.11 208.14 L 508.91 208.31 L 508.69 208.47 L 508.19 209.04 L 508.18 209.39 L 508.47 209.92 L 508.62 210.28 L 508.53 210.55 L 507.97 210.96 L 507.27 211.32 L 506.70 211.85 L 506.61 212.01 L 506.92 213.26 L 507.35 213.78 L 508.01 213.93 L 509.28 213.71 L 510.82 213.65 L 512.31 214.03 L 512.84 214.19 L 514.21 214.50 L 515.73 214.58 L 517.21 214.22 L 517.45 214.12 L 517.69 214.01 L 518.42 213.73 L 519.15 213.62 L 519.86 213.80 L 520.68 214.48 L 521.19 214.80 L 521.81 214.76 L 522.39 214.40 L 522.87 213.73 L 523.40 212.79 L 523.81 212.56 L 524.55 212.61 L 524.95 212.59 L 525.20 212.33 L 525.44 211.57 L 525.71 210.35 L 526.23 209.21 L 526.79 207.87 L 527.79 206.81 L 528.43 206.51 L 528.72 206.56 L 528.94 206.84 L 529.30 207.58 L 529.74 208.02 L 530.28 208.17 L 530.96 207.94 L 531.56 207.39 L 531.93 206.68 L 532.07 205.88 L 531.97 205.02 L 531.87 203.95 L 532.13 202.96 L 532.49 202.53 L 532.90 202.31 L 533.87 202.18 L 534.17 202.17 L 540.15 202.01 L 541.13 201.96 L 541.56 201.78 L 541.79 201.36 L 541.71 200.92 L 541.40 200.60 L 540.45 200.21 L 539.82 199.79 L 539.61 199.05 L 538.16 199.04 L 536.80 199.31 L 534.15 200.29 L 533.36 200.45 L 532.76 200.31 L 532.23 199.93 L 531.74 199.35 L 532.25 198.86 L 532.19 198.60 L 531.46 198.09 L 531.05 197.46 L 531.04 196.66 L 531.43 194.70 L 532.12 192.99 L 533.23 191.54 L 534.96 190.37 L 536.02 189.70 L 537.00 188.87 L 537.58 188.11 L 537.67 187.53 L 537.40 187.01 L 536.63 186.49 L 535.39 186.23 L 534.26 186.47 L 533.31 187.15 L 532.59 188.34 L 532.12 189.26 L 531.53 189.93 L 530.79 190.46 L 529.88 190.90 L 527.84 191.78 L 526.89 192.35 L 526.05 193.06 L 525.57 193.65 L 525.35 193.99 L 525.17 194.35 L 524.55 196.16 L 524.38 197.02 L 524.65 197.59 L 525.60 198.71 L 525.82 199.67 L 525.61 200.68 L 525.11 201.79 L 524.91 201.82 L 523.23 201.97 L 522.08 202.45 L 521.18 203.24 L 520.52 204.26 L 519.66 206.73 L 519.56 207.12 L 519.41 207.69 L 519.34 208.01 L 519.25 208.19 L 516.22 209.04 L 513.37 210.38 L 512.94 210.45 L 512.55 210.24 L 512.28 209.83 L 512.17 209.25 L 512.86 208.47 L 513.29 207.68 L 513.40 206.81 L 513.06 205.60 L 512.88 204.88 L 512.92 204.10 L 513.26 202.46 L 513.37 201.61 L 513.30 200.72 L 507.77 202.38 L 506.72 202.52 L 505.91 202.34 L 505.36 201.79 L 505.09 200.62 L 505.54 200.34 L 505.69 200.28 L 506.38 199.84 L 506.37 199.53 L 505.76 198.82 L 505.65 198.54 L 505.88 198.29 L 506.63 197.90 L 507.41 197.39 L 507.47 197.08 L 507.09 196.44 L 506.88 196.08 L 506.88 195.80 L 507.23 195.28 L 507.38 195.12 L 507.70 194.75 L 507.84 194.34 L 507.90 193.58 L 508.23 193.07 L 508.74 192.71 L 509.28 192.54 L 510.58 192.20 L 511.80 191.71 L 514.10 190.45 L 514.85 190.01 L 515.61 189.58 L 516.18 189.42 L 516.78 189.45 L 517.82 189.69 L 518.18 189.66 L 518.35 189.38 L 518.62 188.56 L 519.01 188.08 L 520.10 187.48 L 523.60 185.67 L 526.88 183.54 L 530.00 181.18 L 533.01 178.65 L 534.36 177.42 L 535.09 177.06 L 536.09 177.03 L 539.02 176.69 L 541.90 176.17 L 543.54 175.85 L 544.29 175.94 L 545.08 176.30 L 546.21 178.00 L 547.65 179.36 L 549.41 180.42 L 551.18 181.38 L 552.83 182.48 L 554.32 183.79 L 555.61 185.35 L 556.09 186.46 L 555.96 187.25 L 555.38 187.80 L 554.17 188.08 L 552.65 188.00 L 551.26 187.58 L 549.95 186.81 L 548.44 185.78 L 546.37 184.92 L 549.03 188.28 L 549.97 189.97 L 550.41 191.89 L 550.61 192.44 L 551.02 192.86 L 552.21 193.48 L 552.83 193.58 L 553.38 193.41 L 553.75 192.93 L 553.62 192.52 L 552.92 191.69 L 552.59 190.96 L 552.60 190.60 L 552.81 190.26 L 553.21 190.04 L 553.53 190.11 L 554.08 190.65 L 554.98 191.40 L 556.11 191.61 L 556.29 191.76 L 556.14 191.58 L 556.09 191.19 L 555.98 190.94 L 555.69 189.78 L 555.79 189.24 L 556.21 188.68 L 557.08 188.20 L 557.89 188.24 L 558.78 188.84 L 559.24 189.10 L 559.47 188.98 L 559.63 188.22 L 559.59 183.80 L 559.70 183.70 L 560.56 184.04 L 561.30 184.56 L 561.65 184.85 L 561.83 184.99 L 562.27 185.49 L 562.29 185.77 L 562.02 186.08 L 561.41 186.75 L 561.33 187.33 L 561.59 187.89 L 562.04 188.30 L 562.78 188.53 L 563.25 188.30 L 563.61 187.78 L 563.88 187.08 L 564.34 186.22 L 564.95 185.68 L 566.53 185.05 L 568.11 184.43 L 568.53 184.31 L 568.83 184.43 L 569.31 185.09 L 569.42 185.28 L 569.72 185.69 L 570.14 185.92 L 570.57 185.74 L 571.05 185.43 L 571.55 185.36 L 572.55 185.26 L 573.17 185.11 L 573.76 185.18 L 574.93 185.50 L 575.50 185.53 L 576.10 185.32 L 575.38 184.42 L 575.10 183.94 L 574.97 183.35 L 576.07 183.33 L 577.09 183.58 L 579.07 184.44 L 580.09 184.81 L 581.19 184.99 L 580.00 183.08 L 579.03 181.10 L 577.24 177.10 L 577.50 176.50 L 577.80 176.33 L 578.62 176.55 L 578.79 176.63 L 578.87 176.66 L 581.83 178.38 L 584.49 180.51 L 585.70 181.46 L 586.38 181.71 L 587.24 181.70 L 587.01 181.21 L 586.63 180.95 L 585.86 180.47 L 586.38 179.86 L 586.94 179.60 L 587.59 179.59 L 588.34 179.82 L 588.31 178.84 L 587.94 177.99 L 587.47 177.15 L 587.17 176.27 L 585.09 174.55 L 582.79 173.16 L 582.82 172.36 L 583.51 172.11 L 584.18 172.19 L 584.87 172.36 L 585.55 172.35 L 583.99 170.41 L 583.50 170.34 L 583.14 170.00 L 583.21 170.01 L 583.14 170.00 L 578.93 168.52 L 578.90 168.13 L 578.89 168.08 L 578.90 168.13 L 578.93 168.53 L 569.47 165.69 L 568.75 165.25 L 571.13 165.42 L 573.45 165.92 Z M 312.11 314.71 L 312.42 315.21 L 312.31 315.70 L 311.56 316.66 L 310.87 318.03 L 310.79 319.55 L 310.80 319.55 L 311.06 319.43 L 312.15 318.64 L 313.00 317.64 L 313.64 316.41 L 313.81 317.91 L 313.79 318.49 L 313.82 319.46 L 314.07 320.31 L 314.64 320.97 L 315.91 321.46 L 316.20 321.70 L 316.44 322.19 L 316.75 322.59 L 317.36 322.71 L 317.90 322.60 L 318.11 322.55 L 318.21 322.53 L 318.42 322.48 L 319.22 322.36 L 319.85 322.53 L 320.29 323.07 L 320.61 324.54 L 320.84 326.42 L 320.85 327.08 L 320.67 327.66 L 320.28 328.20 L 319.42 328.96 L 319.45 328.99 L 320.75 328.95 L 321.58 329.34 L 322.19 330.10 L 322.70 331.31 L 322.87 332.51 L 322.73 333.55 L 322.14 335.61 L 322.23 335.69 L 323.34 335.54 L 323.77 336.89 L 324.48 337.66 L 325.45 338.13 L 326.59 338.42 L 326.94 338.49 L 327.28 338.55 L 327.63 338.62 L 327.81 338.81 L 328.01 339.03 L 329.12 339.93 L 329.80 341.05 L 330.78 343.56 L 331.37 345.45 L 331.56 347.36 L 331.47 351.24 L 331.54 353.18 L 331.92 355.08 L 331.74 355.61 L 331.13 356.50 L 330.90 357.37 L 331.02 359.22 L 331.09 359.61 L 331.20 361.16 L 330.56 361.13 L 330.10 360.76 L 329.65 360.21 L 326.06 365.35 L 326.64 365.66 L 326.86 366.04 L 326.88 367.07 L 326.99 368.11 L 327.36 367.07 L 327.42 366.79 L 327.89 365.57 L 328.35 365.20 L 329.22 365.04 L 329.44 366.96 L 329.89 367.65 L 330.68 367.75 L 332.36 367.07 L 332.38 367.05 L 332.59 366.19 L 333.16 365.48 L 333.18 365.46 L 333.18 365.47 L 334.51 364.71 L 335.16 364.65 L 335.88 365.16 L 336.58 366.02 L 336.94 366.44 L 338.11 367.90 L 339.08 369.45 L 339.66 371.14 L 339.71 373.17 L 339.75 373.55 L 340.09 373.57 L 340.61 373.31 L 341.12 372.76 L 341.51 372.66 L 342.32 373.10 L 342.47 373.21 L 342.94 373.49 L 343.23 373.95 L 343.75 374.18 L 346.55 375.48 L 348.83 377.18 L 350.06 378.57 L 351.01 380.28 L 351.68 382.35 L 351.96 382.84 L 352.48 383.11 L 353.59 383.65 L 354.57 384.37 L 355.05 384.76 L 355.53 385.14 L 356.28 391.17 L 356.30 394.19 L 355.90 397.23 L 355.40 398.80 L 354.65 400.16 L 353.66 401.38 L 352.48 402.48 L 351.08 404.09 L 350.14 406.02 L 349.07 408.12 L 347.74 410.08 L 346.98 411.32 L 346.35 412.79 L 346.03 414.35 L 346.19 415.93 L 346.71 418.84 L 346.77 421.71 L 346.35 427.46 L 345.96 428.27 L 345.34 429.06 L 345.77 431.44 L 345.39 432.39 L 345.00 433.34 L 343.83 436.45 L 343.42 438.05 L 343.18 439.70 L 343.18 441.65 L 343.04 442.59 L 342.59 443.53 L 342.02 444.01 L 341.28 444.13 L 340.65 444.16 L 340.38 444.15 L 339.57 444.16 L 338.82 444.32 L 338.25 444.74 L 337.84 445.71 L 337.59 446.18 L 337.19 446.37 L 336.32 446.70 L 335.91 446.69 L 334.50 448.29 L 332.88 449.98 L 332.11 451.53 L 331.96 452.62 L 332.12 453.90 L 332.64 455.43 L 333.33 457.59 L 333.59 459.69 L 333.47 461.81 L 333.00 463.98 L 332.84 465.03 L 332.78 466.10 L 332.75 466.98 L 332.56 467.25 L 331.87 467.33 L 331.35 467.44 L 331.20 467.76 L 331.25 468.62 L 331.20 476.84 L 331.16 477.65 L 330.98 478.31 L 330.60 478.87 L 329.84 479.34 L 328.97 479.57 L 328.31 479.48 L 327.72 479.15 L 327.13 478.57 L 326.49 477.86 L 326.11 477.60 L 325.60 477.46 L 325.35 477.92 L 325.39 478.31 L 325.81 479.03 L 327.04 481.27 L 327.99 483.60 L 329.46 488.44 L 329.67 489.98 L 329.54 490.72 L 329.18 491.45 L 327.47 491.78 L 325.73 491.87 L 325.73 492.70 L 325.88 493.50 L 326.29 495.07 L 326.81 496.73 L 327.20 498.40 L 327.05 499.21 L 326.50 500.10 L 325.26 499.14 L 324.43 497.93 L 323.15 495.25 L 318.27 485.72 L 313.85 475.99 L 309.88 466.04 L 306.93 457.36 L 306.59 456.37 L 306.30 455.99 L 305.73 455.77 L 305.69 455.38 L 305.68 454.89 L 304.05 445.20 L 302.50 435.49 L 301.79 426.95 L 301.25 422.72 L 300.18 418.54 L 299.25 416.45 L 298.11 414.46 L 297.00 412.46 L 296.11 410.34 L 295.95 409.94 L 295.78 409.55 L 295.46 408.31 L 294.72 406.50 L 294.34 404.63 L 294.31 402.67 L 294.23 401.04 L 293.85 399.51 L 293.15 398.04 L 293.11 396.08 L 292.53 395.87 L 292.47 395.59 L 292.77 394.84 L 292.77 393.94 L 292.69 386.70 L 292.44 383.09 L 291.93 379.49 L 291.14 376.49 L 290.73 374.32 L 290.79 372.24 L 291.19 370.19 L 291.80 368.14 L 292.01 367.49 L 292.12 367.16 L 292.53 365.41 L 292.42 363.57 L 292.33 361.81 L 292.64 360.07 L 292.81 359.37 L 293.13 357.61 L 293.13 357.60 L 293.13 357.61 L 292.79 357.09 L 292.71 356.69 L 292.88 356.36 L 293.51 356.07 L 293.50 356.10 L 293.51 356.07 L 293.53 355.27 L 294.89 351.12 L 296.57 347.10 L 297.34 345.33 L 299.18 340.84 L 300.51 336.26 L 301.53 331.62 L 301.92 328.15 L 302.16 324.56 L 302.05 323.82 L 301.81 323.60 L 301.35 323.49 L 301.43 322.68 L 301.78 321.94 L 303.33 321.92 L 303.30 323.73 L 303.04 325.54 L 302.85 326.59 L 303.03 327.04 L 303.72 327.35 L 304.03 326.00 L 304.57 324.75 L 304.87 324.13 L 305.42 322.86 L 305.50 322.64 L 305.66 322.18 L 306.20 320.84 L 306.87 319.60 L 307.79 318.55 L 309.14 317.71 L 309.58 317.41 L 309.97 316.91 L 310.42 315.65 L 311.27 314.91 L 311.68 314.61 L 312.11 314.71 Z M 387.41 474.30 L 386.44 476.78 L 385.52 479.16 L 385.32 480.37 L 385.41 481.68 L 385.11 482.94 L 385.17 484.35 L 385.55 485.75 L 386.17 487.10 L 386.99 488.30 L 387.89 489.20 L 388.36 489.78 L 388.41 490.25 L 388.21 490.68 L 387.88 490.97 L 386.89 491.82 L 386.61 492.62 L 386.72 493.52 L 387.10 494.51 L 387.23 494.80 L 387.39 495.11 L 387.47 495.26 L 387.63 495.89 L 387.51 496.16 L 387.10 496.43 L 386.57 496.54 L 386.10 496.44 L 385.71 496.17 L 385.45 495.77 L 384.75 494.43 L 383.90 493.18 L 382.12 490.76 L 380.94 489.26 L 380.32 488.53 L 379.42 487.39 L 378.68 486.15 L 378.10 485.21 L 377.98 484.75 L 378.22 484.26 L 378.56 484.13 L 378.95 484.29 L 379.71 484.84 L 380.83 485.16 L 381.70 484.94 L 382.31 484.28 L 382.60 483.11 L 382.60 481.31 L 382.98 481.53 L 383.20 481.91 L 383.42 482.23 L 383.82 482.26 L 384.16 482.01 L 384.24 481.67 L 384.18 480.89 L 384.15 478.93 L 384.43 477.27 L 384.72 476.71 L 385.28 476.07 L 387.41 474.30 Z M 561.79 441.84 L 562.17 442.30 L 562.29 442.56 L 562.41 442.81 L 562.24 445.99 L 562.16 447.58 L 562.37 449.20 L 562.39 449.70 L 562.24 450.28 L 561.75 451.41 L 561.35 451.98 L 561.11 452.00 L 560.77 451.46 L 560.55 451.03 L 560.11 450.93 L 559.75 451.27 L 559.74 451.75 L 560.10 453.58 L 559.89 455.17 L 559.28 456.69 L 558.45 458.13 L 558.19 458.56 L 557.29 460.05 L 555.20 464.21 L 553.29 468.43 L 550.33 474.35 L 546.96 480.06 L 546.23 480.86 L 545.21 481.41 L 544.07 481.64 L 542.93 481.52 L 541.77 481.01 L 540.82 480.23 L 540.12 479.21 L 539.70 477.92 L 538.87 472.93 L 538.78 470.69 L 539.25 468.70 L 540.18 466.88 L 541.51 465.27 L 542.63 463.86 L 543.27 462.46 L 543.56 460.96 L 543.56 459.29 L 543.55 456.15 L 543.76 454.52 L 544.36 453.27 L 545.34 452.31 L 546.81 451.61 L 548.26 450.99 L 548.74 450.76 L 550.20 450.21 L 550.95 450.09 L 551.73 450.16 L 552.56 450.18 L 553.08 449.95 L 553.76 449.03 L 554.33 448.11 L 556.72 445.58 L 557.79 444.18 L 558.70 442.67 L 559.05 441.32 L 559.30 440.71 L 559.81 440.31 L 560.30 440.27 L 560.62 440.47 L 561.14 441.23 L 561.79 441.84 Z M 577.29 468.33 L 577.10 469.06 L 576.56 469.41 L 575.99 469.30 L 575.81 468.92 L 576.10 468.12 L 576.81 467.70 L 577.20 467.86 L 577.29 468.33 Z M 717.84 449.48 L 717.84 449.47 L 717.75 450.31 L 717.56 450.62 L 717.13 450.85 L 716.81 450.74 L 716.70 450.37 L 716.78 449.88 L 717.00 449.64 L 717.74 449.48 L 717.84 449.48 Z M 723.56 443.45 L 722.60 444.38 L 721.83 445.50 L 720.38 447.81 L 719.44 448.74 L 718.13 449.39 L 717.86 449.46 L 717.96 449.21 L 718.88 447.31 L 720.05 445.67 L 721.54 444.37 L 723.56 443.45 Z M 713.66 446.56 L 714.14 446.74 L 714.51 447.07 L 715.03 447.90 L 714.84 448.67 L 714.62 448.87 L 714.27 448.91 L 713.47 448.44 L 713.16 447.54 L 713.15 446.85 L 713.28 446.62 L 713.66 446.56 Z M 712.56 441.40 L 712.73 441.77 L 713.04 442.05 L 713.69 442.58 L 713.82 442.91 L 713.68 443.45 L 713.28 443.93 L 712.74 444.21 L 711.45 444.35 L 710.79 444.27 L 710.57 444.10 L 710.47 443.71 L 710.67 442.96 L 710.88 442.67 L 711.07 442.63 L 711.63 442.76 L 711.89 442.65 L 712.16 442.01 L 712.56 441.40 Z M 719.00 443.18 L 717.97 443.92 L 717.05 444.18 L 716.16 444.05 L 715.23 443.51 L 714.90 443.16 L 714.92 442.70 L 715.56 442.41 L 717.28 442.49 L 718.12 442.71 L 719.00 443.18 Z M 696.66 430.18 L 698.42 430.42 L 699.19 430.73 L 699.85 431.31 L 700.82 432.31 L 701.78 432.78 L 702.82 432.79 L 704.10 432.22 L 704.88 432.72 L 705.11 432.85 L 705.76 433.31 L 706.22 433.85 L 706.40 434.52 L 706.16 435.59 L 706.27 436.18 L 706.58 436.60 L 707.36 436.81 L 707.81 437.18 L 708.33 438.28 L 708.76 439.43 L 709.20 440.26 L 709.24 440.66 L 709.04 441.01 L 708.65 441.27 L 708.50 441.24 L 708.39 440.81 L 708.38 440.57 L 708.31 440.43 L 707.60 440.85 L 707.15 440.79 L 706.36 440.03 L 705.95 439.64 L 705.46 439.48 L 703.80 439.10 L 702.14 438.46 L 701.14 437.66 L 699.97 437.11 L 698.60 436.81 L 697.64 436.59 L 696.69 436.11 L 695.89 435.39 L 695.31 434.37 L 695.10 433.90 L 694.23 433.61 L 693.98 433.10 L 694.28 432.19 L 695.05 430.73 L 695.63 430.30 L 696.66 430.18 Z M 522.98 425.35 L 522.81 427.12 L 522.48 428.84 L 521.83 432.21 L 521.62 435.42 L 521.70 437.07 L 521.94 438.71 L 522.19 439.47 L 522.43 439.68 L 522.85 439.69 L 523.14 439.50 L 523.22 439.20 L 523.15 438.51 L 523.20 433.93 L 523.39 431.65 L 523.84 429.36 L 524.04 428.39 L 524.06 427.34 L 523.78 426.33 L 522.98 425.35 Z M 399.94 431.75 L 399.54 432.33 L 399.06 432.75 L 397.92 433.40 L 397.25 433.11 L 397.16 432.76 L 397.61 432.17 L 398.51 431.54 L 398.92 431.18 L 399.18 430.65 L 399.76 430.69 L 400.04 430.84 L 400.13 431.13 L 399.94 431.75 Z M 726.50 406.91 L 726.53 408.11 L 726.25 409.13 L 725.23 410.99 L 724.78 411.39 L 724.26 411.44 L 723.10 411.10 L 721.54 410.73 L 720.95 410.85 L 720.68 411.39 L 720.58 413.04 L 720.58 414.60 L 720.61 415.33 L 720.78 415.76 L 721.14 415.94 L 721.99 415.77 L 722.96 415.68 L 723.41 415.81 L 723.51 416.05 L 723.64 417.48 L 723.62 418.17 L 723.17 418.86 L 722.26 419.90 L 721.74 421.03 L 721.52 422.28 L 721.54 423.73 L 721.81 425.58 L 721.96 426.32 L 722.27 428.36 L 722.14 430.43 L 721.95 431.28 L 721.42 432.03 L 721.06 431.62 L 721.00 431.12 L 721.00 430.85 L 720.82 430.13 L 720.27 430.19 L 719.81 430.43 L 718.95 431.10 L 718.48 431.36 L 717.91 431.46 L 717.03 431.36 L 716.53 431.11 L 716.30 430.65 L 716.37 429.77 L 717.16 426.55 L 717.38 425.86 L 717.42 425.24 L 717.12 423.92 L 717.14 422.68 L 717.71 420.25 L 718.40 417.85 L 719.11 414.82 L 719.39 413.30 L 719.47 411.72 L 719.54 410.69 L 719.89 409.76 L 720.55 408.89 L 721.38 408.19 L 721.80 408.17 L 722.53 408.64 L 723.34 409.13 L 724.22 409.24 L 725.05 408.92 L 725.83 408.03 L 726.50 406.91 Z M 681.70 388.83 L 682.34 389.24 L 683.09 389.44 L 684.23 389.83 L 684.70 390.19 L 685.00 390.67 L 685.74 392.37 L 686.65 394.00 L 687.36 395.21 L 688.67 397.67 L 689.17 398.97 L 689.51 400.35 L 689.78 401.19 L 690.32 401.71 L 691.18 401.97 L 691.74 403.98 L 692.44 405.93 L 693.05 406.75 L 693.99 407.46 L 694.48 408.11 L 694.62 409.03 L 694.65 410.10 L 694.47 411.16 L 694.26 412.25 L 694.26 412.78 L 694.38 413.03 L 695.29 414.07 L 695.57 415.18 L 695.61 417.57 L 695.77 418.09 L 696.08 418.48 L 696.82 419.20 L 697.08 419.63 L 697.18 420.24 L 697.38 419.63 L 697.39 419.14 L 697.17 418.22 L 696.97 417.34 L 697.07 416.97 L 697.45 416.73 L 697.91 416.78 L 698.15 417.09 L 698.35 417.97 L 698.59 419.72 L 698.39 420.52 L 697.62 421.46 L 697.18 422.13 L 696.86 423.26 L 696.56 425.69 L 696.52 427.33 L 696.25 428.07 L 695.43 428.69 L 694.35 429.07 L 693.49 429.13 L 692.77 428.78 L 692.11 427.68 L 691.53 426.96 L 690.77 426.31 L 690.54 424.15 L 690.37 423.08 L 690.40 421.98 L 689.64 418.88 L 689.15 415.70 L 688.76 413.80 L 688.09 411.99 L 686.70 408.37 L 686.40 407.83 L 686.22 407.32 L 686.29 405.77 L 686.03 404.36 L 684.94 401.69 L 684.51 400.82 L 683.53 398.45 L 682.76 396.71 L 681.76 395.10 L 680.80 393.48 L 680.13 391.70 L 679.66 390.41 L 679.33 389.18 L 679.42 388.61 L 679.87 388.10 L 680.39 387.95 L 680.86 388.11 L 681.70 388.83 Z M 729.84 423.44 L 731.15 423.59 L 731.42 424.08 L 731.42 424.54 L 731.17 425.49 L 730.92 425.39 L 730.42 425.18 L 729.39 424.88 L 728.55 424.75 L 728.31 424.55 L 728.31 424.07 L 728.51 423.66 L 728.83 423.39 L 729.26 423.30 L 729.84 423.44 Z M 727.63 424.35 L 727.48 425.02 L 727.28 425.24 L 726.94 425.34 L 726.58 425.26 L 726.39 425.03 L 726.18 424.39 L 726.24 423.85 L 726.76 423.60 L 727.39 423.75 L 727.63 424.35 Z M 716.91 387.70 L 717.47 387.92 L 717.85 388.25 L 718.36 389.24 L 719.13 391.25 L 719.67 392.97 L 719.62 394.42 L 719.07 395.83 L 717.99 397.40 L 717.59 398.18 L 717.40 399.23 L 717.56 401.35 L 717.77 404.56 L 717.93 406.15 L 718.50 407.69 L 718.58 408.07 L 718.48 408.42 L 717.54 409.82 L 716.93 411.28 L 716.28 414.40 L 716.13 415.46 L 715.45 418.57 L 714.34 421.19 L 712.81 423.55 L 712.02 424.25 L 711.59 424.24 L 711.07 423.56 L 710.62 423.22 L 710.05 423.13 L 708.75 423.03 L 707.47 422.85 L 706.97 422.50 L 706.56 421.74 L 706.23 421.83 L 705.68 421.99 L 705.26 421.66 L 705.02 421.33 L 704.91 418.89 L 704.54 416.48 L 703.66 411.67 L 703.49 409.25 L 703.71 406.78 L 704.47 404.79 L 704.96 403.93 L 705.49 403.79 L 706.26 404.31 L 706.36 404.43 L 707.10 405.00 L 707.51 404.97 L 707.82 404.59 L 708.08 403.77 L 708.38 402.67 L 708.82 401.75 L 709.53 401.05 L 710.86 400.58 L 711.52 400.30 L 711.90 399.81 L 712.23 398.40 L 712.41 396.92 L 713.87 395.70 L 714.77 394.29 L 715.37 392.70 L 715.82 391.01 L 716.28 389.31 L 716.91 387.70 Z M 700.81 420.51 L 701.20 420.71 L 701.28 421.23 L 701.00 421.92 L 700.77 422.18 L 700.37 422.31 L 699.97 422.13 L 700.00 421.65 L 700.11 421.29 L 700.15 421.10 L 700.33 420.70 L 700.81 420.51 Z M 513.13 402.15 L 512.60 402.31 L 512.32 402.74 L 512.16 403.94 L 512.16 404.18 L 512.12 406.70 L 511.83 409.22 L 511.68 410.46 L 511.75 411.71 L 512.05 412.90 L 512.59 413.93 L 513.51 415.36 L 514.25 416.79 L 514.74 418.30 L 514.93 419.96 L 515.16 420.60 L 515.69 420.80 L 515.97 420.84 L 516.15 420.88 L 516.61 421.06 L 517.04 420.93 L 517.20 420.53 L 517.10 420.21 L 516.70 419.57 L 515.66 417.69 L 515.22 416.75 L 515.17 415.72 L 515.23 414.48 L 514.94 413.51 L 514.31 412.73 L 513.54 411.83 L 513.18 410.94 L 513.13 409.99 L 513.37 408.92 L 513.70 407.10 L 513.73 405.25 L 513.71 404.08 L 513.77 402.87 L 513.66 402.38 L 513.13 402.15 Z M 370.18 414.63 L 370.69 414.71 L 371.06 414.94 L 371.58 415.69 L 371.44 416.27 L 370.92 416.45 L 369.98 416.21 L 369.42 415.48 L 369.40 415.12 L 369.55 414.87 L 370.18 414.63 Z M 729.61 411.04 L 729.61 414.06 L 729.25 412.60 L 729.25 411.89 L 729.51 411.18 L 729.61 411.04 Z M 731.14 403.24 L 731.64 404.71 L 731.44 405.18 L 730.46 405.53 L 730.55 407.94 L 730.73 410.37 L 730.61 411.10 L 730.42 411.25 L 729.68 411.03 L 729.63 411.00 L 729.62 410.76 L 729.50 409.51 L 729.42 409.01 L 729.25 407.26 L 729.35 406.40 L 729.67 405.52 L 729.84 404.93 L 730.01 404.72 L 730.43 404.71 L 730.43 404.87 L 730.43 404.71 L 731.14 403.24 Z M 682.58 403.14 L 683.40 403.65 L 683.82 404.21 L 684.01 404.90 L 684.04 405.76 L 683.42 405.22 L 683.04 404.63 L 682.58 403.14 Z M 523.36 390.71 L 522.37 390.97 L 521.65 391.79 L 521.20 393.07 L 520.94 394.36 L 520.72 396.99 L 520.69 397.87 L 520.47 400.50 L 520.59 401.13 L 520.92 401.76 L 521.29 402.13 L 521.88 402.01 L 523.65 401.11 L 524.21 401.11 L 524.67 401.46 L 525.69 403.30 L 525.82 402.18 L 526.21 401.49 L 526.85 401.10 L 527.83 401.00 L 526.94 399.80 L 526.67 399.27 L 526.75 398.91 L 527.29 398.13 L 527.66 397.26 L 528.35 395.38 L 528.88 394.48 L 529.77 393.57 L 528.35 393.81 L 527.67 393.57 L 527.26 392.99 L 527.05 392.13 L 526.73 391.17 L 526.46 390.82 L 526.26 390.81 L 525.43 391.19 L 524.74 391.11 L 523.36 390.71 Z M 512.79 396.14 L 512.27 396.46 L 512.17 396.99 L 512.17 397.18 L 512.17 397.36 L 512.20 397.97 L 512.33 398.18 L 512.64 398.24 L 513.38 397.86 L 513.66 397.01 L 513.42 396.41 L 512.79 396.14 Z M 728.18 379.83 L 728.53 379.96 L 728.71 380.26 L 728.85 381.07 L 729.16 383.97 L 728.94 386.80 L 728.20 389.62 L 728.18 390.76 L 728.37 391.58 L 728.34 391.93 L 728.07 392.15 L 727.63 392.16 L 727.23 391.93 L 726.64 391.17 L 726.29 390.30 L 726.12 389.40 L 726.10 387.54 L 726.05 387.02 L 725.87 386.67 L 725.09 386.14 L 724.61 386.03 L 724.38 386.13 L 724.10 386.64 L 723.75 387.10 L 723.69 385.04 L 723.90 384.12 L 724.63 383.27 L 724.80 383.07 L 724.86 382.98 L 725.19 382.72 L 725.87 383.05 L 726.34 383.11 L 726.86 382.61 L 727.65 381.07 L 727.69 380.29 L 727.79 379.98 L 728.18 379.83 Z M 646.99 372.26 L 647.53 373.67 L 648.27 374.98 L 648.72 375.71 L 649.71 377.61 L 650.12 378.96 L 650.22 380.33 L 649.99 381.75 L 649.31 383.32 L 648.48 384.08 L 647.38 384.29 L 645.67 383.89 L 645.01 381.58 L 644.87 379.34 L 645.08 377.08 L 645.48 374.83 L 645.62 374.08 L 646.02 371.82 L 646.64 371.87 L 646.99 372.26 Z M 719.98 373.07 L 720.16 374.31 L 720.08 375.94 L 719.74 377.60 L 719.13 379.22 L 718.23 380.63 L 717.10 381.64 L 718.20 379.61 L 718.90 377.47 L 719.98 373.07 Z M 727.29 369.30 L 727.67 371.12 L 727.76 372.96 L 727.81 374.84 L 728.06 376.76 L 727.32 376.31 L 727.00 375.73 L 726.39 374.39 L 725.73 377.00 L 725.07 379.64 L 723.98 378.02 L 723.86 377.24 L 724.37 376.21 L 724.64 375.78 L 724.64 375.24 L 724.41 375.08 L 723.77 375.04 L 723.38 374.91 L 723.28 374.54 L 723.36 373.62 L 723.26 372.71 L 723.34 372.30 L 723.65 372.03 L 724.07 372.00 L 724.33 372.22 L 724.49 372.99 L 724.74 374.03 L 725.05 374.37 L 725.43 374.50 L 725.88 374.38 L 726.21 374.03 L 726.68 373.03 L 726.84 372.12 L 726.70 371.29 L 726.24 369.64 L 726.20 369.37 L 726.16 369.18 L 726.18 368.66 L 726.61 368.35 L 726.98 368.39 L 727.14 368.62 L 727.29 369.30 Z M 722.00 365.66 L 722.40 366.55 L 722.54 367.61 L 722.38 368.92 L 720.96 366.14 L 720.73 365.62 L 720.76 365.39 L 721.04 365.18 L 721.59 365.23 L 722.00 365.66 Z M 719.93 347.64 L 720.81 347.83 L 721.15 348.15 L 721.39 348.79 L 721.90 353.38 L 721.86 355.67 L 721.47 357.98 L 721.37 358.91 L 721.49 359.82 L 721.87 361.64 L 722.14 362.09 L 722.71 362.34 L 723.91 362.75 L 724.73 363.29 L 725.24 363.94 L 725.59 365.24 L 725.37 367.22 L 724.89 366.97 L 724.62 366.57 L 724.24 365.59 L 723.93 365.20 L 723.38 364.96 L 722.13 364.47 L 721.46 363.69 L 721.08 362.66 L 720.86 361.45 L 720.80 361.10 L 720.28 360.16 L 719.72 359.10 L 719.39 357.36 L 719.39 356.49 L 719.64 355.46 L 719.91 353.94 L 719.78 352.34 L 719.26 349.10 L 719.04 348.16 L 719.11 347.81 L 719.67 347.64 L 719.75 347.64 L 719.93 347.64 Z M 705.66 342.73 L 705.97 343.39 L 706.01 344.02 L 705.74 345.33 L 705.66 345.98 L 705.77 346.62 L 705.12 348.42 L 704.77 348.84 L 704.37 349.02 L 703.92 349.00 L 703.46 348.76 L 702.78 347.93 L 702.54 347.00 L 702.53 344.99 L 702.67 344.20 L 703.09 343.69 L 703.86 343.39 L 705.66 342.73 Z M 716.27 324.91 L 716.90 327.26 L 717.27 329.70 L 717.43 332.22 L 717.45 335.01 L 716.55 333.21 L 716.09 331.53 L 715.92 329.83 L 715.95 328.18 L 716.27 324.91 Z M 300.49 311.09 L 300.80 311.24 L 300.67 311.56 L 300.34 311.41 L 300.49 311.09 Z M 712.30 273.64 L 713.90 275.41 L 715.23 277.33 L 717.42 281.49 L 717.50 281.53 L 717.65 281.69 L 717.44 281.87 L 717.60 282.95 L 718.22 283.84 L 719.63 287.45 L 721.41 290.89 L 722.06 292.51 L 722.04 294.05 L 721.36 295.60 L 721.00 296.78 L 720.86 298.02 L 720.64 298.59 L 720.18 299.09 L 719.83 299.49 L 719.86 299.93 L 719.98 300.41 L 719.91 300.85 L 718.93 300.24 L 718.96 301.13 L 719.16 302.03 L 719.64 303.92 L 719.68 304.94 L 719.43 306.11 L 718.15 303.19 L 717.06 300.56 L 716.25 298.76 L 716.07 297.83 L 716.27 296.79 L 716.31 296.35 L 716.32 296.35 L 716.31 296.35 L 716.30 293.63 L 716.32 293.42 L 716.33 293.19 L 716.46 292.71 L 717.43 292.12 L 717.78 291.60 L 717.83 291.01 L 717.60 290.37 L 716.80 289.07 L 716.64 288.44 L 716.59 287.74 L 717.12 287.61 L 717.35 287.36 L 717.36 286.52 L 716.25 281.62 L 715.31 279.33 L 713.84 277.17 L 712.80 275.58 L 712.30 273.64 Z M 477.19 160.79 L 476.22 161.24 L 475.21 161.47 L 473.16 161.79 L 472.78 161.86 L 472.40 161.91 L 471.55 162.14 L 471.23 162.41 L 470.97 162.90 L 472.06 162.79 L 476.41 162.55 L 480.77 162.55 L 480.94 162.34 L 481.14 162.54 L 480.76 162.56 L 480.69 162.67 L 480.54 162.86 L 480.31 163.13 L 479.38 163.85 L 478.33 164.31 L 476.06 164.94 L 476.09 165.79 L 475.87 166.06 L 475.35 166.28 L 472.51 167.28 L 471.32 167.59 L 470.09 167.72 L 467.58 167.85 L 466.33 168.06 L 465.09 168.51 L 465.63 168.76 L 466.10 168.76 L 467.03 168.53 L 467.47 168.49 L 467.92 168.63 L 467.72 169.57 L 467.46 169.93 L 467.00 170.17 L 465.74 170.55 L 464.80 170.85 L 462.10 171.53 L 460.72 171.63 L 459.25 171.46 L 457.93 171.50 L 456.55 172.04 L 455.39 172.94 L 454.76 173.92 L 455.26 173.99 L 455.64 174.32 L 454.10 175.08 L 452.65 175.98 L 449.70 177.76 L 447.35 178.69 L 444.95 179.42 L 442.58 180.22 L 440.34 181.35 L 439.86 181.57 L 439.44 181.58 L 438.19 181.11 L 436.98 181.15 L 434.80 181.83 L 433.49 182.42 L 432.21 183.30 L 431.07 184.41 L 430.11 185.70 L 429.00 185.69 L 429.34 184.14 L 429.34 184.13 L 429.36 184.09 L 429.34 184.13 L 428.50 184.37 L 427.74 184.80 L 425.68 186.14 L 423.78 187.69 L 422.85 188.49 L 420.47 190.42 L 419.20 191.27 L 417.82 191.99 L 417.09 192.58 L 416.74 193.53 L 416.21 194.20 L 415.54 194.71 L 415.42 196.28 L 415.11 196.95 L 414.47 197.58 L 414.06 198.14 L 413.96 198.84 L 413.91 199.58 L 413.64 200.23 L 411.40 201.82 L 410.21 202.48 L 408.93 203.00 L 407.71 202.97 L 406.65 203.24 L 404.69 204.31 L 404.27 204.58 L 402.51 205.49 L 401.36 205.84 L 400.33 205.97 L 399.35 205.83 L 398.31 205.29 L 395.77 205.30 L 394.51 205.36 L 393.27 205.74 L 393.94 206.62 L 394.06 207.35 L 393.78 208.07 L 393.06 208.83 L 392.09 209.48 L 389.98 210.57 L 388.29 212.06 L 385.32 215.53 L 384.85 216.32 L 384.76 217.09 L 384.95 217.87 L 385.37 218.67 L 382.21 220.58 L 380.24 221.09 L 379.34 221.53 L 378.51 222.16 L 377.73 222.64 L 377.34 222.63 L 376.98 222.35 L 376.89 222.01 L 377.07 221.69 L 377.65 221.09 L 379.08 219.79 L 380.67 218.68 L 380.66 218.67 L 380.46 218.65 L 379.50 218.68 L 378.66 219.02 L 377.90 219.68 L 377.41 220.16 L 376.87 220.46 L 375.67 220.77 L 375.25 220.83 L 374.02 221.07 L 373.54 221.44 L 372.58 222.16 L 370.24 224.03 L 368.10 226.14 L 366.35 226.33 L 365.57 226.59 L 365.10 227.07 L 364.59 227.82 L 363.98 228.33 L 362.57 229.09 L 361.30 229.99 L 359.89 231.32 L 358.30 232.40 L 357.04 233.43 L 355.95 234.65 L 354.85 235.86 L 353.53 236.89 L 353.44 236.39 L 353.42 236.09 L 353.16 235.89 L 352.77 236.26 L 351.51 237.79 L 350.43 239.47 L 349.36 241.14 L 348.10 242.67 L 347.58 242.62 L 347.18 242.72 L 346.49 243.24 L 346.30 243.43 L 346.10 243.62 L 344.62 245.31 L 343.89 246.16 L 343.03 246.89 L 339.47 249.72 L 336.38 252.92 L 333.65 256.44 L 331.19 260.24 L 328.64 264.74 L 327.28 266.93 L 325.69 268.99 L 326.22 267.05 L 326.99 265.20 L 327.81 263.37 L 328.47 261.47 L 328.54 260.70 L 328.73 260.45 L 329.15 260.31 L 329.29 260.30 L 329.70 259.77 L 329.99 259.42 L 330.84 258.23 L 331.10 257.57 L 331.20 256.78 L 330.83 256.42 L 330.62 255.95 L 330.12 254.99 L 327.28 258.32 L 326.88 257.89 L 325.62 257.93 L 324.69 258.36 L 323.90 259.09 L 323.20 259.99 L 322.99 260.28 L 319.86 264.97 L 318.25 267.28 L 316.46 269.46 L 316.02 270.70 L 315.20 271.73 L 315.12 271.67 L 315.19 271.73 L 314.65 273.08 L 314.27 273.66 L 313.68 274.15 L 313.63 274.10 L 313.68 274.15 L 312.93 276.05 L 311.94 277.83 L 311.29 279.05 L 308.51 284.60 L 307.38 287.47 L 306.52 290.48 L 306.05 292.40 L 305.28 294.19 L 304.91 294.97 L 304.23 296.56 L 303.78 297.27 L 302.95 297.54 L 302.43 297.40 L 302.23 297.12 L 302.14 296.29 L 302.41 294.78 L 303.00 293.42 L 304.46 290.80 L 308.43 282.63 L 312.85 274.68 L 313.52 274.01 L 313.58 273.84 L 313.73 273.35 L 314.18 272.34 L 314.52 271.93 L 315.04 271.60 L 315.08 271.64 L 315.06 271.62 L 315.04 271.60 L 315.36 270.39 L 315.66 269.87 L 316.13 269.43 L 316.30 269.32 L 317.23 267.21 L 318.39 265.24 L 320.97 261.45 L 327.26 252.52 L 333.93 243.94 L 340.98 235.70 L 348.43 227.78 L 356.28 220.19 L 363.98 213.46 L 371.96 206.99 L 378.05 202.38 L 384.28 197.99 L 390.64 193.79 L 397.10 189.72 L 402.51 186.57 L 408.04 183.64 L 419.33 178.20 L 427.40 174.66 L 435.61 171.47 L 443.96 168.64 L 454.61 165.41 L 460.00 164.05 L 465.48 162.99 L 471.27 161.61 L 477.19 160.79 Z M 321.40 289.36 L 322.51 289.69 L 323.34 290.28 L 323.99 291.08 L 324.49 292.09 L 324.52 292.83 L 324.55 293.04 L 324.51 293.86 L 324.29 294.17 L 323.75 294.44 L 322.03 294.48 L 320.31 294.59 L 319.48 294.44 L 318.65 294.01 L 318.34 293.40 L 318.28 293.10 L 318.40 292.77 L 318.70 292.53 L 318.99 292.52 L 319.58 292.84 L 320.19 293.12 L 320.52 293.00 L 320.88 292.18 L 321.27 290.79 L 321.40 289.36 Z M 316.24 291.74 L 316.49 293.16 L 316.33 293.82 L 315.84 294.12 L 314.73 294.04 L 314.76 293.22 L 314.94 292.53 L 315.36 292.03 L 316.24 291.74 Z M 320.16 276.80 L 320.75 277.71 L 320.93 278.67 L 320.98 280.69 L 320.93 281.83 L 320.77 281.86 L 320.93 281.83 L 320.99 283.48 L 320.86 285.08 L 320.81 285.68 L 320.92 286.14 L 321.40 286.98 L 321.37 287.34 L 320.57 287.91 L 319.71 288.15 L 317.86 288.15 L 318.56 286.74 L 318.93 285.28 L 319.09 282.23 L 320.01 282.03 L 319.09 282.23 L 319.07 282.23 L 319.15 280.88 L 319.43 279.55 L 319.44 278.89 L 319.27 278.57 L 318.94 278.48 L 318.26 278.74 L 317.79 280.23 L 317.26 280.24 L 316.98 280.03 L 317.14 279.36 L 317.54 278.94 L 318.26 278.74 L 318.66 277.21 L 319.37 276.86 L 320.16 276.80 Z M 542.34 273.90 L 541.72 274.86 L 541.07 275.53 L 539.62 276.51 L 538.95 276.79 L 538.33 276.83 L 537.79 276.60 L 537.32 275.98 L 537.17 275.40 L 537.28 275.19 L 537.91 275.06 L 538.54 274.94 L 539.35 274.48 L 540.27 274.25 L 542.34 273.90 Z M 579.10 243.58 L 577.17 243.80 L 575.24 244.04 L 573.21 244.63 L 572.25 244.95 L 571.61 244.93 L 570.54 244.71 L 570.12 244.95 L 569.70 246.12 L 569.38 247.33 L 569.10 248.54 L 568.95 249.14 L 568.83 249.66 L 569.04 250.00 L 569.61 250.24 L 569.94 250.58 L 570.28 251.48 L 570.34 251.74 L 570.62 252.45 L 570.85 254.42 L 571.53 256.11 L 572.51 257.66 L 573.67 259.12 L 574.06 259.59 L 575.02 260.78 L 575.69 261.90 L 575.77 262.58 L 575.44 263.17 L 574.58 263.83 L 574.04 265.65 L 573.76 267.44 L 573.86 269.22 L 574.46 271.06 L 574.53 271.28 L 574.57 271.43 L 574.76 271.83 L 575.27 271.86 L 575.83 271.81 L 576.23 271.98 L 576.92 272.63 L 578.21 273.74 L 579.54 274.57 L 581.02 275.00 L 582.93 274.88 L 584.08 274.51 L 584.57 274.09 L 584.74 273.49 L 584.58 272.48 L 584.33 271.06 L 584.40 270.36 L 584.70 269.65 L 584.43 268.31 L 584.02 267.04 L 583.37 265.94 L 582.39 265.13 L 581.74 264.74 L 581.52 264.48 L 581.50 264.17 L 581.71 263.59 L 582.17 261.76 L 582.79 262.43 L 583.44 262.88 L 584.12 263.00 L 584.93 262.59 L 585.52 261.81 L 585.54 261.26 L 585.26 260.73 L 584.77 260.22 L 583.93 259.24 L 583.44 258.52 L 583.04 258.42 L 582.58 258.61 L 582.06 259.05 L 581.88 259.21 L 581.19 259.77 L 581.24 257.48 L 581.06 256.46 L 580.62 255.66 L 579.87 255.11 L 578.50 254.78 L 577.94 253.76 L 577.17 252.87 L 576.56 252.35 L 576.35 252.03 L 576.31 251.65 L 576.52 251.28 L 576.85 251.19 L 577.63 251.24 L 578.07 251.19 L 578.19 251.09 L 578.19 250.84 L 578.10 250.58 L 578.06 250.11 L 578.19 249.83 L 578.80 249.48 L 579.02 249.39 L 579.56 249.11 L 579.78 248.59 L 581.09 248.98 L 582.18 249.76 L 582.39 250.23 L 582.53 250.39 L 582.89 250.36 L 583.35 250.04 L 583.60 249.51 L 583.57 248.54 L 583.04 247.18 L 582.20 245.86 L 581.17 244.70 L 580.02 243.84 L 579.10 243.58 Z M 518.82 271.35 L 520.15 271.80 L 520.81 272.05 L 521.81 272.39 L 522.87 272.55 L 523.27 272.78 L 523.36 273.25 L 523.03 273.62 L 522.58 273.64 L 522.39 273.63 L 522.02 273.65 L 520.11 273.37 L 518.38 272.54 L 517.93 272.18 L 517.83 271.62 L 518.01 271.36 L 518.25 271.27 L 518.82 271.35 Z M 564.96 268.32 L 565.53 270.67 L 566.03 271.74 L 566.78 272.72 L 567.30 273.12 L 567.59 273.15 L 567.94 272.95 L 568.14 272.64 L 568.13 272.37 L 567.87 271.77 L 567.35 270.74 L 566.64 269.87 L 564.96 268.32 Z M 706.71 263.05 L 708.68 263.94 L 709.58 264.49 L 710.32 265.18 L 710.84 266.05 L 711.11 267.30 L 710.90 267.71 L 710.92 268.05 L 711.25 268.74 L 711.34 269.52 L 711.02 269.48 L 710.75 269.26 L 710.27 268.71 L 709.98 268.58 L 709.58 268.66 L 708.82 268.13 L 708.55 267.37 L 708.49 266.43 L 708.24 265.61 L 707.38 264.10 L 707.10 263.68 L 706.71 263.05 Z M 561.27 266.25 L 560.02 266.49 L 559.47 266.65 L 559.15 267.20 L 559.24 267.53 L 559.57 267.69 L 560.55 267.74 L 561.14 267.69 L 561.56 267.38 L 561.85 266.74 L 561.70 266.27 L 561.27 266.25 Z M 496.69 260.02 L 497.42 260.44 L 498.16 260.65 L 499.69 260.72 L 500.16 260.71 L 501.57 260.75 L 501.57 261.47 L 501.01 261.71 L 500.66 262.05 L 500.25 262.97 L 500.16 263.25 L 499.97 263.80 L 499.37 264.24 L 498.84 264.39 L 498.32 264.25 L 497.72 263.69 L 496.16 262.24 L 495.69 261.62 L 495.14 261.09 L 494.99 260.79 L 495.11 260.37 L 495.46 260.04 L 495.88 259.87 L 496.32 259.87 L 496.69 260.02 Z M 705.66 261.07 L 705.96 261.37 L 706.06 261.76 L 706.06 261.86 L 706.40 262.24 L 706.45 262.75 L 706.14 262.36 L 706.05 261.87 L 705.95 261.82 L 705.68 261.52 L 705.66 261.07 Z M 628.31 261.45 L 628.13 261.83 L 628.44 262.24 L 629.24 262.56 L 629.85 262.42 L 631.04 261.45 L 630.05 261.08 L 629.16 261.09 L 628.31 261.45 Z M 551.67 240.49 L 550.50 240.67 L 549.37 241.02 L 547.07 241.78 L 545.84 241.99 L 544.47 241.93 L 545.98 243.92 L 546.81 244.53 L 548.06 244.66 L 548.61 244.78 L 548.93 245.29 L 548.73 245.83 L 548.21 246.07 L 544.79 246.88 L 544.23 247.02 L 544.05 247.06 L 543.47 247.16 L 543.05 247.06 L 542.86 246.71 L 543.01 245.65 L 542.86 245.25 L 542.48 244.88 L 541.65 244.11 L 541.74 243.68 L 542.82 243.31 L 543.47 243.13 L 543.71 242.92 L 543.78 242.55 L 543.62 242.15 L 543.33 241.91 L 542.57 241.86 L 541.80 241.95 L 541.14 241.81 L 539.90 241.13 L 538.92 240.86 L 537.73 241.01 L 536.64 241.54 L 535.89 242.34 L 533.86 245.90 L 531.69 249.30 L 531.00 250.46 L 530.66 251.44 L 530.61 252.43 L 530.85 253.49 L 531.04 253.98 L 531.35 254.32 L 531.41 254.45 L 531.46 254.59 L 531.51 255.04 L 531.46 255.22 L 531.51 255.05 L 532.24 255.16 L 531.87 255.49 L 531.38 255.55 L 531.14 255.64 L 531.38 255.55 L 531.87 255.49 L 532.25 255.16 L 533.06 255.25 L 533.06 255.26 L 533.06 255.25 L 535.81 255.26 L 538.47 254.84 L 541.09 253.99 L 541.89 253.79 L 542.79 253.80 L 544.63 254.23 L 546.33 254.93 L 549.49 256.76 L 551.68 257.71 L 553.77 257.99 L 555.90 257.87 L 558.08 257.54 L 558.73 256.30 L 558.75 255.25 L 558.32 254.24 L 557.50 253.23 L 551.91 247.72 L 551.31 246.82 L 551.19 246.58 L 550.69 245.90 L 550.33 245.70 L 549.79 245.62 L 550.26 245.08 L 550.94 244.64 L 551.63 244.23 L 552.12 243.74 L 552.30 243.11 L 551.96 242.02 L 552.08 241.85 L 552.34 241.62 L 553.03 241.35 L 553.24 241.15 L 553.09 240.65 L 552.79 240.40 L 552.44 240.36 L 551.67 240.49 Z M 491.51 249.62 L 492.01 250.05 L 492.24 250.70 L 492.23 251.43 L 491.99 252.08 L 490.20 255.29 L 489.67 255.85 L 489.31 255.95 L 488.88 255.88 L 488.37 255.37 L 488.26 254.22 L 488.58 252.60 L 489.12 250.80 L 489.53 250.20 L 490.13 249.74 L 490.83 249.51 L 491.51 249.62 Z M 628.75 247.35 L 627.94 248.15 L 627.11 248.43 L 626.20 248.41 L 625.21 248.20 L 624.89 248.11 L 622.60 247.73 L 621.39 247.75 L 620.53 248.14 L 619.81 248.80 L 619.15 249.65 L 618.94 249.94 L 618.72 250.24 L 618.41 250.82 L 618.39 251.18 L 618.81 251.77 L 618.95 251.90 L 619.29 252.23 L 619.45 252.61 L 619.91 253.61 L 620.00 252.37 L 620.44 251.43 L 622.06 249.82 L 623.27 249.07 L 624.40 248.81 L 625.56 248.86 L 626.81 249.10 L 627.70 249.24 L 628.40 249.15 L 628.89 248.74 L 629.15 247.73 L 628.75 247.35 Z M 478.75 251.75 L 478.47 252.60 L 477.75 253.05 L 477.49 253.06 L 477.35 252.92 L 477.30 252.40 L 477.62 251.60 L 477.87 251.27 L 478.27 251.07 L 478.66 251.25 L 478.75 251.75 Z M 493.30 244.85 L 493.31 245.00 L 493.34 245.39 L 493.20 246.31 L 492.84 247.08 L 491.86 248.50 L 491.46 248.77 L 491.02 248.63 L 490.43 247.88 L 490.32 247.45 L 490.41 246.93 L 491.29 245.51 L 492.55 244.50 L 492.98 244.34 L 493.17 244.40 L 493.30 244.85 Z M 695.06 239.09 L 695.39 239.43 L 695.46 239.89 L 695.45 239.88 L 695.10 239.58 L 695.06 239.11 L 695.06 239.09 Z M 657.01 228.46 L 657.01 228.49 L 657.01 228.50 L 657.00 228.50 L 656.98 228.76 L 657.24 230.14 L 657.69 231.48 L 658.07 232.83 L 658.27 233.50 L 658.86 235.86 L 658.97 237.07 L 658.87 238.31 L 658.83 238.51 L 658.79 238.72 L 658.78 239.43 L 658.96 239.65 L 659.42 239.77 L 659.86 239.72 L 660.06 239.55 L 660.16 238.94 L 660.15 238.75 L 660.15 238.32 L 660.22 236.05 L 659.96 233.82 L 659.39 231.62 L 658.33 229.96 L 657.01 228.49 L 657.01 228.46 Z M 693.49 237.53 L 694.30 237.78 L 694.80 238.28 L 695.06 239.09 L 695.06 239.11 L 694.26 238.84 L 693.76 238.33 L 693.49 237.53 Z M 677.79 220.66 L 678.67 220.99 L 685.13 227.36 L 688.24 230.65 L 691.17 234.11 L 692.70 235.57 L 693.29 236.40 L 693.49 237.53 L 684.74 228.41 L 678.93 222.36 L 678.64 222.10 L 678.43 221.93 L 677.95 221.40 L 677.79 220.66 Z M 481.71 207.32 L 481.66 208.49 L 481.30 209.00 L 480.47 209.34 L 479.72 209.59 L 479.07 210.08 L 478.56 210.71 L 478.22 211.37 L 477.37 212.89 L 476.29 213.88 L 474.99 214.58 L 473.56 215.09 L 473.09 215.23 L 472.86 215.30 L 472.39 215.44 L 471.69 215.66 L 470.67 215.71 L 470.20 215.48 L 469.90 214.99 L 469.89 214.54 L 470.08 214.15 L 470.89 213.52 L 472.55 212.29 L 473.18 211.75 L 473.50 211.49 L 473.78 211.02 L 473.84 209.82 L 474.26 208.99 L 475.04 208.42 L 476.31 208.11 L 477.26 207.80 L 477.90 207.13 L 478.67 206.39 L 479.69 206.14 L 480.39 206.20 L 481.00 206.43 L 481.48 206.82 L 481.71 207.32 Z M 408.92 203.78 L 408.28 204.62 L 407.49 205.26 L 405.79 206.38 L 405.17 206.91 L 404.74 207.48 L 404.60 208.12 L 404.94 208.99 L 405.06 209.14 L 404.96 209.66 L 404.70 210.12 L 404.10 211.06 L 403.99 211.60 L 404.14 212.35 L 404.12 213.07 L 403.56 213.76 L 401.82 214.86 L 400.97 215.13 L 400.23 215.07 L 398.74 214.75 L 398.80 214.66 L 398.92 214.51 L 399.14 214.02 L 399.14 214.01 L 399.14 213.74 L 399.10 213.62 L 399.04 213.52 L 399.03 213.50 L 398.95 213.41 L 398.77 213.25 L 398.60 213.15 L 398.43 213.07 L 398.26 213.00 L 398.04 212.93 L 396.84 212.79 L 395.60 212.78 L 396.07 211.73 L 396.84 211.01 L 398.62 210.07 L 400.20 209.13 L 401.59 208.02 L 404.35 205.77 L 406.48 204.43 L 407.63 203.97 L 408.92 203.78 Z M 512.14 208.96 L 512.15 209.12 L 512.15 209.19 L 512.15 209.26 L 512.00 209.34 L 511.49 209.80 L 511.17 210.36 L 510.89 211.50 L 510.62 212.30 L 510.20 212.72 L 509.67 212.91 L 509.22 212.86 L 508.63 212.48 L 508.63 212.15 L 509.45 211.46 L 509.02 210.48 L 509.11 209.94 L 509.49 209.52 L 510.09 209.19 L 510.39 209.05 L 511.17 208.59 L 511.72 208.22 L 511.95 208.26 L 512.14 208.96 Z M 396.04 206.78 L 396.24 206.85 L 396.34 207.52 L 396.20 208.07 L 395.46 209.03 L 395.10 209.10 L 394.90 208.80 L 395.03 207.96 L 395.40 207.30 L 396.04 206.78 Z M 486.88 208.48 L 486.88 208.48 L 488.65 208.46 L 489.60 210.40 L 489.73 211.40 L 489.39 212.56 L 489.06 213.50 L 489.20 213.91 L 489.65 214.08 L 490.57 213.98 L 490.92 214.54 L 490.88 215.00 L 490.31 215.85 L 488.61 217.20 L 487.75 217.89 L 487.02 218.91 L 486.40 219.45 L 485.29 219.63 L 482.86 219.56 L 481.11 219.50 L 480.52 219.47 L 477.91 219.48 L 476.64 219.76 L 475.36 220.35 L 474.78 220.55 L 474.46 220.41 L 474.14 219.50 L 475.52 218.98 L 476.74 218.16 L 477.93 217.23 L 479.29 216.39 L 478.36 215.79 L 478.17 215.36 L 478.39 214.97 L 479.20 214.60 L 479.87 214.27 L 480.26 213.81 L 480.76 212.63 L 481.05 212.07 L 481.49 211.61 L 481.83 211.14 L 482.02 211.01 L 482.40 211.17 L 483.19 211.61 L 483.90 211.59 L 484.65 211.11 L 485.16 210.40 L 485.21 209.71 L 484.81 208.92 L 484.91 208.75 L 485.11 208.49 L 484.78 208.18 L 484.34 208.09 L 483.43 208.09 L 483.12 207.95 L 482.99 207.54 L 483.23 206.96 L 483.87 206.29 L 484.15 206.04 L 484.67 205.54 L 484.87 205.24 L 484.72 204.90 L 483.91 204.97 L 483.59 204.91 L 483.43 204.39 L 483.62 203.57 L 484.09 203.12 L 484.91 202.98 L 485.07 202.99 L 485.11 202.29 L 485.39 201.82 L 486.33 201.11 L 486.78 200.74 L 487.08 200.26 L 488.54 199.11 L 490.06 198.07 L 491.09 197.77 L 491.60 197.86 L 491.99 198.24 L 492.05 198.73 L 491.76 199.05 L 490.92 199.62 L 490.18 200.23 L 490.20 200.90 L 492.21 201.00 L 492.11 201.36 L 490.47 202.73 L 489.44 204.31 L 488.86 206.12 L 488.65 208.17 L 488.65 208.46 L 486.88 208.48 L 486.78 208.48 L 486.88 208.48 Z M 529.85 203.80 L 530.38 203.96 L 530.59 204.38 L 530.21 205.07 L 529.61 205.28 L 528.97 205.07 L 528.72 204.46 L 528.84 204.01 L 529.10 203.84 L 529.85 203.80 Z M 542.98 197.40 L 542.60 197.71 L 542.47 197.98 L 542.57 198.60 L 542.68 198.88 L 542.75 199.06 L 543.19 200.49 L 543.59 201.03 L 544.42 201.27 L 545.26 201.09 L 545.65 200.63 L 545.68 199.80 L 545.11 198.27 L 544.19 197.53 L 543.71 197.25 L 542.98 197.40 Z M 488.00 197.97 L 487.44 198.84 L 486.66 199.46 L 486.38 199.56 L 486.24 199.64 L 485.86 199.75 L 485.49 199.45 L 486.52 198.46 L 487.10 198.06 L 488.00 197.97 Z M 427.01 178.97 L 423.17 179.93 L 419.48 181.40 L 417.02 182.58 L 415.75 183.05 L 414.42 183.36 L 404.61 188.06 L 400.89 191.75 L 398.91 193.45 L 396.73 194.96 L 394.31 196.46 L 393.25 197.41 L 392.43 198.65 L 392.44 198.65 L 393.80 198.19 L 395.02 197.50 L 397.30 195.86 L 401.19 193.44 L 405.29 191.39 L 409.43 189.31 L 411.40 188.09 L 413.29 186.69 L 415.57 185.07 L 417.98 183.69 L 420.56 182.55 L 423.88 180.94 L 427.01 178.97 Z M 526.49 157.33 L 534.25 157.58 L 537.76 157.84 L 541.28 158.36 L 541.19 158.99 L 539.05 159.03 L 536.91 159.07 L 536.65 159.63 L 536.04 159.75 L 536.05 159.72 L 536.04 159.75 L 533.34 159.87 L 530.63 159.97 L 529.91 160.44 L 529.07 160.62 L 526.87 160.88 L 525.78 161.02 L 524.72 161.38 L 523.15 161.45 L 521.16 162.41 L 519.02 162.91 L 516.69 163.54 L 514.50 164.50 L 513.78 164.57 L 512.91 165.39 L 511.72 165.75 L 509.94 166.15 L 509.05 166.40 L 508.61 166.52 L 506.67 166.53 L 506.28 166.50 L 506.32 166.88 L 501.49 169.81 L 500.08 170.56 L 499.32 170.73 L 498.42 170.64 L 498.03 170.74 L 497.70 171.16 L 497.33 171.61 L 496.75 171.85 L 494.77 172.33 L 493.13 173.31 L 490.15 175.88 L 487.84 177.47 L 486.08 179.53 L 486.90 179.21 L 487.71 179.08 L 489.36 179.15 L 489.92 179.21 L 491.16 179.30 L 492.38 179.15 L 492.92 179.11 L 493.15 179.28 L 493.23 179.60 L 493.15 180.16 L 492.82 181.05 L 492.35 181.72 L 491.71 182.25 L 490.83 182.73 L 489.59 183.17 L 488.32 183.42 L 485.76 183.74 L 484.51 184.00 L 483.29 184.45 L 482.96 184.51 L 482.67 184.41 L 482.27 183.80 L 481.83 183.15 L 481.09 183.01 L 480.19 182.93 L 479.60 182.52 L 479.23 181.71 L 478.96 181.17 L 478.60 180.99 L 477.67 181.06 L 475.99 181.59 L 474.91 181.72 L 474.68 181.47 L 474.80 180.59 L 474.91 179.64 L 474.89 178.64 L 474.57 177.95 L 472.74 177.03 L 470.89 176.75 L 469.02 176.95 L 467.34 177.48 L 460.99 180.22 L 454.80 183.33 L 447.00 187.27 L 447.25 185.67 L 447.32 184.91 L 447.24 184.67 L 446.42 184.19 L 446.25 183.90 L 446.36 183.60 L 446.69 183.29 L 447.39 182.76 L 448.28 181.76 L 449.01 180.62 L 451.78 178.89 L 454.43 177.01 L 456.15 176.03 L 456.98 175.51 L 457.62 174.72 L 459.17 174.19 L 460.65 173.48 L 461.48 173.04 L 463.39 172.15 L 465.44 171.59 L 465.90 171.26 L 466.38 171.18 L 467.42 171.18 L 467.42 171.19 L 468.93 170.64 L 470.23 169.81 L 472.53 167.68 L 473.30 167.63 L 475.41 167.02 L 477.54 166.81 L 481.85 166.86 L 482.29 165.94 L 482.84 165.18 L 483.57 164.62 L 484.64 164.31 L 487.44 163.78 L 490.15 162.94 L 492.86 162.05 L 495.62 161.33 L 495.69 160.99 L 497.02 160.75 L 497.56 160.42 L 498.00 159.82 L 497.50 159.61 L 497.74 159.51 L 498.00 159.40 L 498.02 159.38 L 499.98 159.01 L 500.66 158.69 L 501.43 158.62 L 501.78 158.61 L 502.71 158.48 L 503.11 158.28 L 503.48 157.88 L 509.23 157.21 L 514.97 157.00 L 526.49 157.33 Z M 431.18 179.46 L 430.14 180.62 L 428.92 181.39 L 426.23 182.57 L 424.81 183.37 L 423.62 184.40 L 422.62 185.68 L 423.61 185.86 L 424.48 185.68 L 425.27 185.24 L 425.88 184.71 L 426.78 183.96 L 427.68 183.54 L 428.65 183.36 L 429.73 183.36 L 429.93 183.13 L 430.14 183.36 L 430.33 183.36 L 430.51 183.35 L 434.43 179.81 L 434.44 179.80 L 432.41 180.10 L 432.42 179.76 L 432.60 179.47 L 432.74 179.18 L 432.65 178.81 L 431.77 178.93 L 431.18 179.46 Z M 565.90 174.30 L 566.27 174.73 L 566.68 176.27 L 567.35 177.60 L 568.31 178.70 L 569.69 179.58 L 570.09 179.97 L 570.19 180.56 L 568.87 180.61 L 567.57 180.57 L 567.07 180.25 L 566.62 179.45 L 566.50 178.68 L 566.14 178.25 L 565.60 178.03 L 565.00 178.02 L 564.20 177.98 L 563.84 177.72 L 563.71 177.29 L 563.81 176.72 L 563.85 176.10 L 563.72 175.49 L 563.67 174.90 L 563.97 174.32 L 565.90 174.30 Z M 583.39 176.76 L 583.99 177.02 L 584.32 177.37 L 584.67 178.25 L 584.10 178.15 L 583.83 177.98 L 583.39 176.76 Z M 568.77 170.04 L 568.54 170.56 L 568.07 170.87 L 566.91 171.39 L 566.25 172.12 L 565.92 173.08 L 565.90 174.30 L 563.97 174.32 L 563.40 173.73 L 563.03 173.11 L 562.92 172.43 L 563.17 171.59 L 563.40 171.19 L 563.74 170.95 L 564.56 170.63 L 564.91 170.41 L 565.16 170.03 L 565.98 169.92 L 566.72 169.51 L 567.36 169.21 L 567.87 169.25 L 568.33 169.53 L 568.77 170.04 Z M 543.52 161.73 L 543.99 161.86 L 544.46 162.01 L 545.16 162.17 L 545.90 162.18 L 545.51 163.33 L 544.02 163.25 L 542.63 163.43 L 542.19 163.78 L 542.15 164.18 L 542.51 165.14 L 542.59 165.62 L 542.37 166.07 L 541.84 166.02 L 541.54 165.74 L 541.40 164.92 L 541.20 164.66 L 540.91 164.61 L 540.53 164.76 L 539.79 165.21 L 538.55 165.68 L 537.96 165.64 L 537.31 165.28 L 537.98 164.88 L 538.35 164.35 L 538.56 162.98 L 539.43 162.55 L 540.07 161.82 L 540.77 161.81 L 541.69 161.37 L 542.58 161.34 L 543.52 161.73 Z M 484.31 160.99 L 478.79 162.16 L 478.51 162.16 L 478.36 162.17 L 478.07 162.14 L 477.93 161.85 L 478.01 161.60 L 478.21 161.46 L 478.77 161.37 L 478.79 161.35 L 483.11 160.76 L 483.76 160.68 L 484.31 160.99 Z M 544.77 158.95 L 543.93 158.53 L 544.32 158.34 L 544.52 158.40 L 544.77 158.95 Z M 445.09 610.65 L 441.25 609.55 L 437.47 608.26 L 430.02 605.41 L 423.64 602.78 L 417.37 599.92 L 405.07 593.72 L 398.82 590.33 L 395.77 588.50 L 392.81 586.52 L 393.20 586.07 L 395.08 586.67 L 396.79 587.56 L 400.07 589.62 L 411.01 595.62 L 422.21 601.12 L 431.86 605.31 L 441.73 608.93 L 443.52 609.51 L 444.37 609.95 L 445.09 610.65 M 347.63 550.04 L 346.45 549.24 L 345.67 548.03 L 346.71 548.36 L 347.33 549.00 L 347.63 550.04 M 350.86 553.40 L 349.76 552.59 L 348.96 551.48 L 350.01 551.75 L 350.61 552.36 L 350.86 553.40 M 449.37 611.93 L 448.11 611.78 L 447.01 611.17 L 447.94 611.02 L 448.69 611.26 L 449.37 611.93 M 354.71 557.07 L 353.94 556.67 L 353.50 555.90 L 354.21 556.01 L 354.59 556.37 L 354.71 557.07 M 352.43 554.95 L 351.74 554.54 L 351.31 553.85 L 351.97 553.95 L 352.32 554.29 L 352.43 554.95 M 693.48 543.95 L 693.77 543.67 L 693.48 543.95 M 693.10 544.35 L 693.39 544.05 L 693.10 544.35 M 386.14 576.65 L 384.61 576.64 L 382.25 573.91 L 382.16 573.04 L 381.79 572.29 L 381.34 571.55 L 381.07 570.76 L 380.68 569.60 L 381.24 569.68 L 381.65 569.93 L 382.28 570.74 L 383.21 572.61 L 384.38 574.31 L 385.79 575.85 L 386.14 576.65" fill="url(#radialGradient-2)" fill-rule="evenodd" group-id="1" id="形状结合" node-id="32" stroke-linecap="butt" stroke-width="1" target-height="454.9325" target-width="449.50073" target-x="282.13855" target-y="157.00116"></path></g><g node-id="46"><path d="M 231.24 433.13 L 789.48 433.13 L 789.48 868.18 L 231.24 868.18 Z" fill="#5d0200" fill-rule="evenodd" group-id="2" id="矩形" node-id="34" stroke="#979797" stroke-linecap="butt" stroke-width="1.6428572" target-height="435.04547" target-width="558.2359" target-x="231.24016" target-y="433.13312"></path><path d="M 230.42 386.86 L 790.30 386.86 L 790.30 432.31 L 230.42 432.31 Z" fill="#ddc6b6" fill-rule="evenodd" group-id="2" id="矩形备份-50" node-id="35" stroke-linecap="butt" stroke-width="1" target-height="45.45453" target-width="559.8788" target-x="230.41873" target-y="386.85715"></path><path d="M 223.86 369.00 L 491.47 369.00 L 493.27 369.17 L 494.92 369.62 L 496.45 370.35 L 498.44 371.89 L 499.98 373.88 L 500.71 375.41 L 501.16 377.06 L 501.33 378.86 L 501.33 443.56 L 501.16 445.36 L 500.71 447.01 L 499.98 448.53 L 498.44 450.53 L 496.45 452.07 L 494.92 452.80 L 493.27 453.25 L 491.47 453.42 L 223.86 453.42 L 222.06 453.25 L 220.41 452.80 L 218.88 452.07 L 216.89 450.53 L 215.35 448.53 L 214.62 447.01 L 214.17 445.36 L 214.00 443.56 L 214.00 378.86 L 214.17 377.06 L 214.62 375.41 L 215.35 373.88 L 216.89 371.89 L 218.88 370.35 L 220.41 369.62 L 222.06 369.17 L 223.86 369.00 Z M 223.86 576.79 L 491.47 576.79 L 493.27 576.96 L 494.92 577.41 L 496.45 578.14 L 498.44 579.68 L 499.98 581.67 L 500.71 583.20 L 501.16 584.85 L 501.33 586.65 L 501.33 651.35 L 501.16 653.15 L 500.71 654.80 L 499.98 656.33 L 498.44 658.32 L 496.45 659.86 L 494.92 660.59 L 493.27 661.04 L 491.47 661.21 L 223.86 661.21 L 222.06 661.04 L 220.41 660.59 L 218.88 659.86 L 216.89 658.32 L 215.35 656.33 L 214.62 654.80 L 214.17 653.15 L 214.00 651.35 L 214.00 586.65 L 214.17 584.85 L 214.62 583.20 L 215.35 581.67 L 216.89 579.68 L 218.88 578.14 L 220.41 577.41 L 222.06 576.96 L 223.86 576.79 Z M 223.86 784.58 L 491.47 784.58 L 493.27 784.75 L 494.92 785.20 L 496.45 785.93 L 498.44 787.47 L 499.98 789.47 L 500.71 790.99 L 501.16 792.64 L 501.33 794.44 L 501.33 859.14 L 501.16 860.94 L 500.71 862.59 L 499.98 864.12 L 498.44 866.11 L 496.45 867.65 L 494.92 868.38 L 493.27 868.83 L 491.47 869.00 L 223.86 869.00 L 222.06 868.83 L 220.41 868.38 L 218.88 867.65 L 216.89 866.11 L 215.35 864.12 L 214.62 862.59 L 214.17 860.94 L 214.00 859.14 L 214.00 794.44 L 214.17 792.64 L 214.62 790.99 L 215.35 789.47 L 216.89 787.47 L 218.88 785.93 L 220.41 785.20 L 222.06 784.75 L 223.86 784.58 Z M 374.91 472.90 L 642.52 472.90 L 644.32 473.06 L 645.97 473.51 L 647.50 474.24 L 649.49 475.78 L 651.03 477.78 L 651.76 479.31 L 652.21 480.95 L 652.38 482.75 L 652.38 547.45 L 652.21 549.25 L 651.76 550.90 L 651.03 552.43 L 649.49 554.42 L 647.50 555.97 L 645.97 556.69 L 644.32 557.14 L 642.52 557.31 L 374.91 557.31 L 373.11 557.14 L 371.46 556.69 L 369.93 555.97 L 367.94 554.42 L 366.40 552.43 L 365.67 550.90 L 365.22 549.25 L 365.05 547.45 L 365.05 482.75 L 365.22 480.95 L 365.67 479.31 L 366.40 477.78 L 367.94 475.78 L 369.93 474.24 L 371.46 473.51 L 373.11 473.06 L 374.91 472.90 Z M 374.91 680.69 L 642.52 680.69 L 644.32 680.86 L 645.97 681.31 L 647.50 682.03 L 649.49 683.58 L 651.03 685.57 L 651.76 687.10 L 652.21 688.75 L 652.38 690.55 L 652.38 755.25 L 652.21 757.05 L 651.76 758.69 L 651.03 760.22 L 649.49 762.22 L 647.50 763.76 L 645.97 764.49 L 644.32 764.94 L 642.52 765.10 L 374.91 765.10 L 373.11 764.94 L 371.46 764.49 L 369.93 763.76 L 367.94 762.22 L 366.40 760.22 L 365.67 758.69 L 365.22 757.05 L 365.05 755.25 L 365.05 690.55 L 365.22 688.75 L 365.67 687.10 L 366.40 685.57 L 367.94 683.58 L 369.93 682.03 L 371.46 681.31 L 373.11 680.86 L 374.91 680.69 Z M 223.86 472.90 L 338.78 472.90 L 340.58 473.06 L 342.22 473.51 L 343.75 474.24 L 345.75 475.78 L 347.29 477.78 L 348.02 479.31 L 348.47 480.95 L 348.63 482.75 L 348.63 547.45 L 348.47 549.25 L 348.02 550.90 L 347.29 552.43 L 345.75 554.42 L 343.75 555.97 L 342.22 556.69 L 340.58 557.14 L 338.78 557.31 L 223.86 557.31 L 222.06 557.14 L 220.41 556.69 L 218.88 555.97 L 216.89 554.42 L 215.35 552.43 L 214.62 550.90 L 214.17 549.25 L 214.00 547.45 L 214.00 482.75 L 214.17 480.95 L 214.62 479.31 L 215.35 477.78 L 216.89 475.78 L 218.88 474.24 L 220.41 473.51 L 222.06 473.06 L 223.86 472.90 Z M 223.86 680.69 L 338.78 680.69 L 340.58 680.86 L 342.22 681.31 L 343.75 682.03 L 345.75 683.58 L 347.29 685.57 L 348.02 687.10 L 348.47 688.75 L 348.63 690.55 L 348.63 755.25 L 348.47 757.05 L 348.02 758.69 L 347.29 760.22 L 345.75 762.22 L 343.75 763.76 L 342.22 764.49 L 340.58 764.94 L 338.78 765.10 L 223.86 765.10 L 222.06 764.94 L 220.41 764.49 L 218.88 763.76 L 216.89 762.22 L 215.35 760.22 L 214.62 758.69 L 214.17 757.05 L 214.00 755.25 L 214.00 690.55 L 214.17 688.75 L 214.62 687.10 L 215.35 685.57 L 216.89 683.58 L 218.88 682.03 L 220.41 681.31 L 222.06 680.86 L 223.86 680.69 Z M 685.22 472.90 L 800.14 472.90 L 801.94 473.06 L 803.59 473.51 L 805.12 474.24 L 807.11 475.78 L 808.65 477.78 L 809.38 479.31 L 809.83 480.95 L 810.00 482.75 L 810.00 547.45 L 809.83 549.25 L 809.38 550.90 L 808.65 552.43 L 807.11 554.42 L 805.12 555.97 L 803.59 556.69 L 801.94 557.14 L 800.14 557.31 L 685.22 557.31 L 683.42 557.14 L 681.78 556.69 L 680.25 555.97 L 678.25 554.42 L 676.71 552.43 L 675.98 550.90 L 675.53 549.25 L 675.37 547.45 L 675.37 482.75 L 675.53 480.95 L 675.98 479.31 L 676.71 477.78 L 678.25 475.78 L 680.25 474.24 L 681.78 473.51 L 683.42 473.06 L 685.22 472.90 Z M 685.22 680.69 L 800.14 680.69 L 801.94 680.86 L 803.59 681.31 L 805.12 682.03 L 807.11 683.58 L 808.65 685.57 L 809.38 687.10 L 809.83 688.75 L 810.00 690.55 L 810.00 755.25 L 809.83 757.05 L 809.38 758.69 L 808.65 760.22 L 807.11 762.22 L 805.12 763.76 L 803.59 764.49 L 801.94 764.94 L 800.14 765.10 L 685.22 765.10 L 683.42 764.94 L 681.78 764.49 L 680.25 763.76 L 678.25 762.22 L 676.71 760.22 L 675.98 758.69 L 675.53 757.05 L 675.37 755.25 L 675.37 690.55 L 675.53 688.75 L 675.98 687.10 L 676.71 685.57 L 678.25 683.58 L 680.25 682.03 L 681.78 681.31 L 683.42 680.86 L 685.22 680.69 Z M 532.53 369.00 L 800.14 369.00 L 801.94 369.17 L 803.59 369.62 L 805.12 370.35 L 807.11 371.89 L 808.65 373.88 L 809.38 375.41 L 809.83 377.06 L 810.00 378.86 L 810.00 443.56 L 809.83 445.36 L 809.38 447.01 L 808.65 448.53 L 807.11 450.53 L 805.12 452.07 L 803.59 452.80 L 801.94 453.25 L 800.14 453.42 L 532.53 453.42 L 530.73 453.25 L 529.08 452.80 L 527.55 452.07 L 525.56 450.53 L 524.02 448.53 L 523.29 447.01 L 522.84 445.36 L 522.67 443.56 L 522.67 378.86 L 522.84 377.06 L 523.29 375.41 L 524.02 373.88 L 525.56 371.89 L 527.55 370.35 L 529.08 369.62 L 530.73 369.17 L 532.53 369.00 Z M 532.53 576.79 L 800.14 576.79 L 801.94 576.96 L 803.59 577.41 L 805.12 578.14 L 807.11 579.68 L 808.65 581.67 L 809.38 583.20 L 809.83 584.85 L 810.00 586.65 L 810.00 651.35 L 809.83 653.15 L 809.38 654.80 L 808.65 656.33 L 807.11 658.32 L 805.12 659.86 L 803.59 660.59 L 801.94 661.04 L 800.14 661.21 L 532.53 661.21 L 530.73 661.04 L 529.08 660.59 L 527.55 659.86 L 525.56 658.32 L 524.02 656.33 L 523.29 654.80 L 522.84 653.15 L 522.67 651.35 L 522.67 586.65 L 522.84 584.85 L 523.29 583.20 L 524.02 581.67 L 525.56 579.68 L 527.55 578.14 L 529.08 577.41 L 530.73 576.96 L 532.53 576.79 Z M 532.53 784.58 L 800.14 784.58 L 801.94 784.75 L 803.59 785.20 L 805.12 785.93 L 807.11 787.47 L 808.65 789.47 L 809.38 790.99 L 809.83 792.64 L 810.00 794.44 L 810.00 859.14 L 809.83 860.94 L 809.38 862.59 L 808.65 864.12 L 807.11 866.11 L 805.12 867.65 L 803.59 868.38 L 801.94 868.83 L 800.14 869.00 L 532.53 869.00 L 530.73 868.83 L 529.08 868.38 L 527.55 867.65 L 525.56 866.11 L 524.02 864.12 L 523.29 862.59 L 522.84 860.94 L 522.67 859.14 L 522.67 794.44 L 522.84 792.64 L 523.29 790.99 L 524.02 789.47 L 525.56 787.47 L 527.55 785.93 L 529.08 785.20 L 530.73 784.75 L 532.53 784.58 Z" fill="url(#linearGradient-3)" fill-rule="evenodd" group-id="2" id="形状结合" node-id="36" stroke-linecap="butt" stroke-width="1" target-height="500" target-width="596" target-x="214" target-y="369"></path></g><g node-id="47"><path d="M 672.50 515.00 L 678.08 521.32 L 682.82 527.60 L 686.79 533.87 L 690.05 540.14 L 692.62 546.42 L 694.54 552.75 L 695.84 559.14 L 696.51 565.62 L 696.57 572.23 L 696.00 579.00 L 693.52 595.74 L 691.02 609.81 L 686.48 633.85 L 685.37 640.86 L 684.73 646.87 L 684.50 652.00 L 684.34 649.73 L 683.52 643.83 L 682.74 640.07 L 681.56 635.69 L 680.03 631.25 L 677.98 626.67 L 676.35 623.71 L 674.46 620.87 L 672.29 618.15 L 669.86 615.66 L 667.11 613.45 L 664.00 611.50 L 650.92 604.66 L 637.43 597.99 L 623.50 591.50 L 627.41 595.52 L 630.68 599.76 L 633.37 604.26 L 635.50 609.03 L 637.07 614.11 L 638.09 619.55 L 638.53 625.39 L 638.35 631.69 L 637.50 638.50 L 633.48 660.35 L 631.50 671.12 L 629.75 681.69 L 628.36 692.22 L 627.52 702.55 L 627.31 709.43 L 627.47 716.24 L 628.00 723.00 L 628.76 727.49 L 630.00 732.27 L 631.77 737.38 L 634.98 744.90 L 638.83 752.56 L 643.04 760.04 L 647.31 767.06 L 655.33 779.44 L 661.02 788.24 L 662.32 790.63 L 662.62 791.65 L 662.50 792.00 L 661.48 792.28 L 659.23 792.28 L 656.69 791.97 L 653.48 791.27 L 650.22 790.26 L 646.88 788.87 L 643.73 787.10 L 641.01 784.98 L 639.48 783.31 L 638.31 781.50 L 637.50 779.50 L 637.44 779.85 L 637.51 782.48 L 637.85 785.66 L 638.73 790.48 L 640.09 795.71 L 642.34 802.12 L 644.20 806.41 L 646.59 811.03 L 649.56 816.00 L 652.85 820.74 L 656.84 825.64 L 661.59 830.72 L 666.68 835.43 L 672.66 840.15 L 679.62 844.89 L 684.96 848.06 L 690.92 851.17 L 697.53 854.19 L 704.85 857.12 L 712.08 859.61 L 720.06 861.93 L 728.85 864.07 L 738.50 866.00 L 747.40 867.33 L 755.93 868.20 L 764.12 868.62 L 771.98 868.62 L 779.54 868.22 L 789.14 867.14 L 798.24 865.52 L 806.87 863.37 L 815.08 860.72 L 823.18 857.49 L 830.83 853.86 L 838.06 849.84 L 844.89 845.42 L 851.47 840.54 L 857.62 835.39 L 863.36 829.95 L 868.72 824.23 L 873.75 818.17 L 878.36 811.97 L 882.55 805.60 L 886.34 799.07 L 889.78 792.30 L 892.78 785.52 L 895.35 778.70 L 897.51 771.85 L 899.29 764.85 L 900.62 757.96 L 901.52 751.18 L 902.00 744.50 L 902.17 735.04 L 901.98 725.98 L 901.46 717.28 L 900.62 708.94 L 899.01 697.79 L 897.02 687.45 L 894.68 677.85 L 891.90 668.34 L 888.99 659.78 L 885.98 652.09 L 882.61 644.50 L 879.39 638.01 L 876.32 632.52 L 872.94 627.14 L 870.02 623.04 L 867.50 620.00 L 864.65 616.39 L 861.19 611.06 L 857.03 603.56 L 852.05 593.38 L 846.14 579.97 L 839.17 562.73 L 831.00 541.00 L 831.08 556.97 L 831.59 570.90 L 832.45 582.97 L 833.63 593.37 L 835.07 602.27 L 836.72 609.82 L 838.54 616.18 L 840.50 621.50 L 842.69 627.50 L 844.31 633.57 L 845.37 639.74 L 845.86 646.04 L 845.80 652.48 L 845.15 659.11 L 843.89 665.94 L 842.00 673.00 L 836.27 657.52 L 830.43 643.27 L 824.50 630.19 L 818.48 618.21 L 812.38 607.26 L 806.22 597.28 L 800.00 588.22 L 793.73 580.00 L 787.40 572.58 L 781.02 565.92 L 774.58 559.96 L 768.07 554.67 L 761.50 550.00 L 749.86 542.67 L 738.72 536.33 L 728.07 530.93 L 717.86 526.40 L 708.06 522.68 L 698.66 519.73 L 689.62 517.49 L 680.91 515.92 L 672.50 515.00 Z" fill="url(#linearGradient-4)" fill-rule="evenodd" group-id="3" id="路径-29" node-id="38" stroke-linecap="butt" stroke-width="1" target-height="353.6222" target-width="278.66675" target-x="623.5" target-y="515"></path><path d="M 705.50 546.50 L 709.61 550.91 L 713.06 555.47 L 715.90 560.19 L 718.16 565.10 L 719.87 570.22 L 721.02 575.58 L 721.60 581.22 L 721.61 587.18 L 721.00 593.50 L 719.65 600.69 L 717.50 609.06 L 714.90 617.66 L 711.83 626.96 L 705.25 646.06 L 701.99 655.75 L 699.00 665.20 L 696.35 674.57 L 694.33 683.23 L 693.31 689.00 L 692.71 694.24 L 692.50 699.00 L 691.78 695.03 L 690.89 691.15 L 689.41 685.61 L 687.56 679.71 L 685.06 672.94 L 682.08 666.13 L 678.43 659.22 L 675.64 654.78 L 672.56 650.60 L 669.18 646.67 L 665.45 643.11 L 661.40 640.06 L 657.00 637.50 L 657.16 638.01 L 658.43 640.10 L 662.10 646.27 L 664.13 650.37 L 666.14 655.39 L 667.25 658.91 L 668.12 662.72 L 668.73 666.84 L 668.96 670.99 L 668.72 675.37 L 668.00 680.00 L 664.81 694.63 L 663.04 703.73 L 661.30 714.41 L 659.93 725.54 L 659.06 737.62 L 658.87 745.80 L 659.08 754.11 L 659.70 762.59 L 660.82 771.01 L 662.52 779.35 L 664.82 787.62 L 666.96 793.67 L 669.53 799.58 L 672.54 805.35 L 676.00 811.00 L 681.24 818.31 L 686.62 824.97 L 692.15 831.02 L 697.83 836.49 L 703.65 841.41 L 709.63 845.81 L 716.04 849.90 L 722.56 853.47 L 729.21 856.53 L 735.99 859.12 L 742.93 861.22 L 750.04 862.85 L 757.20 864.01 L 764.48 864.72 L 771.89 864.98 L 779.43 864.79 L 787.13 864.13 L 795.00 863.00 L 800.73 861.71 L 806.46 859.88 L 812.20 857.48 L 817.98 854.48 L 823.47 851.10 L 828.88 847.26 L 834.22 842.95 L 839.48 838.15 L 844.43 833.10 L 849.19 827.71 L 853.75 821.97 L 858.12 815.88 L 862.18 809.59 L 865.93 803.11 L 869.37 796.42 L 872.52 789.52 L 875.31 782.46 L 877.70 775.36 L 879.68 768.18 L 881.27 760.94 L 882.44 753.60 L 883.11 746.34 L 883.29 739.14 L 883.00 732.00 L 881.60 717.11 L 879.83 703.08 L 877.70 689.85 L 875.25 677.39 L 872.49 665.66 L 869.44 654.62 L 866.10 644.25 L 862.50 634.50 L 863.31 643.30 L 863.51 651.36 L 863.14 658.75 L 862.26 665.51 L 860.89 671.71 L 859.08 677.40 L 856.83 682.62 L 854.16 687.42 L 851.05 691.84 L 847.51 695.89 L 843.50 699.61 L 839.00 703.00 L 838.72 699.71 L 838.28 696.17 L 837.12 690.22 L 835.33 683.53 L 832.16 674.24 L 829.61 667.85 L 826.20 660.30 L 821.80 651.43 L 817.09 642.76 L 811.20 632.82 L 804.00 621.50 L 797.50 612.21 L 790.71 603.53 L 783.64 595.45 L 776.26 587.94 L 768.59 580.98 L 760.61 574.55 L 752.31 568.63 L 743.68 563.22 L 734.70 558.30 L 725.36 553.88 L 715.63 549.94 L 705.50 546.50 Z" fill="url(#linearGradient-5)" fill-rule="evenodd" group-id="3" id="路径-30" node-id="39" stroke-linecap="butt" stroke-width="1" target-height="318.4807" target-width="226.29199" target-x="657" target-y="546.5"></path><path d="M 736.00 594.00 L 740.72 598.55 L 744.53 603.03 L 747.52 607.43 L 749.78 611.79 L 751.37 616.14 L 752.32 620.50 L 752.68 624.92 L 752.42 629.44 L 751.53 634.11 L 749.97 638.95 L 747.67 644.02 L 744.55 649.36 L 740.50 655.00 L 737.59 659.10 L 735.03 663.37 L 732.80 667.82 L 730.90 672.47 L 728.81 678.83 L 727.13 685.34 L 725.87 692.00 L 724.54 702.04 L 723.75 711.86 L 722.90 730.32 L 722.42 738.74 L 721.67 745.66 L 720.84 750.06 L 719.73 753.49 L 718.42 756.13 L 717.10 757.81 L 715.54 758.99 L 713.70 759.72 L 711.50 760.00 L 710.53 759.70 L 709.25 758.70 L 707.53 756.62 L 705.22 753.02 L 702.44 747.94 L 699.72 742.43 L 696.83 736.21 L 691.29 723.62 L 686.41 712.41 L 682.78 704.80 L 681.71 703.12 L 681.24 702.80 L 681.00 703.00 L 679.84 706.84 L 678.86 711.32 L 678.08 716.52 L 677.37 724.49 L 677.07 733.35 L 677.16 742.38 L 677.58 751.62 L 678.30 760.80 L 679.25 769.47 L 680.42 777.86 L 681.68 785.05 L 683.14 791.71 L 684.50 796.50 L 687.18 803.71 L 690.24 810.50 L 693.68 816.90 L 697.48 822.92 L 701.71 828.72 L 706.19 834.08 L 710.90 839.03 L 715.86 843.58 L 721.14 847.83 L 726.52 851.62 L 732.01 854.96 L 737.60 857.88 L 743.43 860.43 L 749.20 862.49 L 754.94 864.08 L 760.66 865.22 L 766.49 865.91 L 772.15 866.09 L 777.64 865.79 L 783.00 865.00 L 787.32 863.87 L 791.78 862.15 L 796.42 859.79 L 801.26 856.72 L 805.72 853.35 L 810.23 849.40 L 814.79 844.82 L 819.43 839.56 L 823.64 834.16 L 827.78 828.22 L 831.84 821.70 L 835.81 814.56 L 839.37 807.38 L 842.71 799.70 L 845.84 791.51 L 848.74 782.78 L 851.21 774.05 L 853.33 764.90 L 855.11 755.31 L 856.53 745.24 L 857.48 735.25 L 857.97 724.90 L 857.98 714.15 L 857.50 703.00 L 857.23 703.31 L 856.34 705.04 L 853.70 710.13 L 851.82 713.25 L 849.38 716.75 L 846.54 720.12 L 843.13 723.37 L 840.61 725.30 L 837.83 727.00 L 834.75 728.46 L 831.52 729.54 L 827.96 730.23 L 824.00 730.50 L 820.64 730.26 L 818.52 729.67 L 817.27 728.86 L 816.42 727.67 L 816.00 726.10 L 816.06 724.02 L 816.74 720.63 L 818.02 716.06 L 819.39 711.11 L 820.76 705.08 L 821.43 700.91 L 821.83 696.29 L 821.92 691.18 L 821.58 686.10 L 820.67 680.55 L 819.12 674.45 L 817.63 670.07 L 815.65 665.39 L 813.13 660.38 L 810.00 655.00 L 803.93 645.89 L 797.74 637.61 L 791.42 630.13 L 784.99 623.38 L 778.43 617.34 L 771.74 611.96 L 764.92 607.20 L 757.95 603.05 L 750.82 599.47 L 743.51 596.46 L 736.00 594.00 Z" fill="url(#linearGradient-6)" fill-rule="evenodd" group-id="3" id="路径-31" node-id="40" stroke-linecap="butt" stroke-width="1" target-height="272.09143" target-width="180.91235" target-x="677.0675" target-y="594"></path><path d="M 763.00 677.00 L 764.42 684.61 L 765.22 691.98 L 765.40 699.16 L 764.99 706.17 L 763.99 713.04 L 762.42 719.78 L 760.25 726.43 L 757.47 733.00 L 754.07 739.52 L 750.00 746.00 L 744.53 754.48 L 739.94 762.57 L 736.16 770.30 L 733.13 777.70 L 730.79 784.78 L 729.10 791.59 L 728.01 798.16 L 727.50 804.50 L 720.98 800.37 L 715.77 796.40 L 711.67 792.58 L 708.55 788.90 L 706.26 785.34 L 704.70 781.87 L 703.80 778.44 L 703.50 775.00 L 703.30 775.37 L 702.67 778.42 L 702.16 782.17 L 701.70 787.80 L 701.53 793.93 L 701.77 801.28 L 702.21 806.28 L 702.97 811.52 L 704.06 817.00 L 705.51 822.39 L 707.40 827.75 L 709.75 833.10 L 712.58 838.19 L 715.99 843.06 L 720.02 847.70 L 723.35 850.85 L 727.11 853.77 L 731.33 856.48 L 736.05 858.96 L 740.85 860.96 L 746.23 862.66 L 752.26 864.01 L 759.00 865.00 L 765.78 865.43 L 772.08 865.29 L 777.95 864.61 L 783.44 863.41 L 788.59 861.72 L 793.43 859.54 L 798.00 856.87 L 802.32 853.67 L 806.41 849.93 L 810.27 845.60 L 813.92 840.62 L 817.35 834.96 L 820.54 828.52 L 823.47 821.25 L 826.13 813.05 L 828.48 803.84 L 830.49 793.54 L 832.11 782.03 L 833.30 769.22 L 834.00 755.00 L 830.18 762.55 L 826.38 768.96 L 822.63 774.36 L 818.92 778.86 L 815.25 782.55 L 811.61 785.52 L 807.98 787.85 L 804.36 789.60 L 800.71 790.80 L 797.00 791.50 L 793.54 791.65 L 791.20 791.27 L 789.65 790.53 L 788.47 789.33 L 787.70 787.68 L 787.37 785.44 L 787.53 781.73 L 788.31 776.69 L 790.63 764.72 L 791.71 757.83 L 792.47 750.01 L 792.68 744.68 L 792.53 739.02 L 792.00 733.00 L 790.68 724.83 L 788.86 717.24 L 786.56 710.18 L 783.79 703.61 L 780.57 697.50 L 776.89 691.80 L 772.75 686.50 L 768.13 681.57 L 763.00 677.00 Z" fill="url(#linearGradient-7)" fill-rule="evenodd" group-id="3" id="路径-32" node-id="41" stroke-linecap="butt" stroke-width="1" target-height="188.43347" target-width="132.47296" target-x="701.52704" target-y="677"></path></g></svg>